<svg width="25" height="24" viewBox="0 0 25 24" fill="none" xmlns="http://www.w3.org/2000/svg">
<path d="M23.3114 5.06873V9.80439C23.3114 10.8807 22.4418 11.7417 21.3569 11.7417H20.315L21.6625 13.8943L17.3143 12.1292V12.0861C17.3143 11.0098 16.4447 10.1488 15.3598 10.1488H7.22738C7.22738 10.0627 7.18433 9.93354 7.18433 9.80439V5.06873C7.18433 3.99244 8.05397 3.13141 9.13886 3.13141H21.3138C22.3987 3.13141 23.3157 3.99244 23.3157 5.06873H23.3114Z" fill="#F05023"/>
<path d="M20.5691 7.43658C20.8748 7.43658 21.1331 7.69489 21.1331 7.99625C21.1331 8.29761 20.8705 8.55592 20.5691 8.55592C20.2677 8.55592 20.0051 8.29761 20.0051 7.99625C20.0482 7.65184 20.2677 7.43658 20.5691 7.43658Z" fill="white"/>
<path d="M14.0468 6.36031H10.2195C9.91383 6.36031 9.65552 6.102 9.65552 5.80064C9.65552 5.49928 9.91813 5.24097 10.2195 5.24097H14.0468C14.3524 5.24097 14.6107 5.49928 14.6107 5.80064C14.6107 6.102 14.3481 6.36031 14.0468 6.36031Z" fill="white"/>
<path d="M18.9633 8.51283H10.2669C9.96119 8.51283 9.70288 8.25452 9.70288 7.95316C9.70288 7.6518 9.9655 7.39349 10.2669 7.39349H18.9633C19.2689 7.39349 19.5272 7.6518 19.5272 7.95316C19.4842 8.25452 19.2216 8.51283 18.9633 8.51283Z" fill="white"/>
<path d="M9.87533 17.0801L9.91838 17.1231H9.83228L9.87533 17.0801Z" fill="#94D4FF"/>
<path d="M18.1843 16.7788C18.1843 17.855 17.3104 18.7161 16.2255 18.7161H8.09409L2.8332 20.8686L4.18071 18.7161H3.13886C2.05397 18.7161 1.18433 17.855 1.18433 16.7788V12.0431C1.18433 10.9668 2.05397 10.1058 3.13886 10.1058H16.2728C17.3577 10.1058 18.2274 10.9668 18.2274 12.0431C18.1843 12.6458 18.1843 16.2191 18.1843 16.7788Z" fill="#F5AA1E"/>
<path d="M13.1822 11.4404L15.2702 17.0801H13.8796L13.4448 15.8316H11.6625L11.2276 17.0801H9.92318L9.88013 17.0371L11.9681 11.4404H13.1865H13.1822ZM13.2252 14.9706L12.5708 12.9472L11.8734 14.9275H13.2209V14.9706H13.2252Z" fill="white"/>
<path d="M9.92309 17.0801V17.1232H8.74778L8.44212 16.8218C8.22686 16.951 8.0073 17.0371 7.79204 17.0801C7.57248 17.1232 7.31417 17.1662 7.05156 17.1662C6.61674 17.1662 6.22497 17.0801 5.87625 16.9079C5.52753 16.7357 5.22187 16.5204 4.96356 16.2621C4.70094 16.0038 4.52874 15.7025 4.39958 15.3581C4.27043 15.0136 4.18433 14.6692 4.18433 14.2818C4.18433 13.8943 4.27043 13.5499 4.39958 13.2055C4.52874 12.8611 4.7483 12.5597 5.00661 12.3014C5.26922 12.0431 5.57058 11.8278 5.9193 11.6556C6.26802 11.4834 6.65979 11.4404 7.05156 11.4404C7.48638 11.4404 7.87814 11.5265 8.22686 11.6987C8.57558 11.8709 8.87694 12.0861 9.13955 12.3444C9.40217 12.6028 9.57437 12.9041 9.70353 13.2485C9.83268 13.5929 9.91878 13.9374 9.91878 14.2818C9.91878 14.6262 9.87573 14.9706 9.74658 15.315C9.61742 15.6594 9.44091 15.9177 9.1826 16.2191L9.92309 17.0801ZM8.44642 14.7984C8.48948 14.6262 8.48948 14.454 8.48948 14.2818C8.48948 14.0665 8.44642 13.8513 8.40337 13.636C8.36032 13.4207 8.23117 13.2485 8.09771 13.0763C7.96855 12.9041 7.79204 12.775 7.61983 12.6889C7.44763 12.6028 7.22807 12.5597 6.96976 12.5597C6.71145 12.5597 6.49189 12.6028 6.31538 12.6889C6.14317 12.775 5.96666 12.9041 5.8375 13.0763C5.70835 13.2485 5.62225 13.4207 5.57489 13.636C5.53184 13.8513 5.48879 14.0665 5.48879 14.2818C5.48879 14.497 5.53184 14.7123 5.57489 14.9275C5.61794 15.1428 5.74709 15.315 5.88055 15.4872C6.00971 15.6594 6.14317 15.7886 6.35843 15.8747C6.53063 15.9608 6.7502 16.0038 7.0085 16.0038C7.22807 16.0038 7.40027 15.9608 7.57248 15.9177L6.65979 14.8845H7.87814L8.22686 15.272C8.35602 15.1428 8.39907 14.9706 8.44212 14.7984H8.44642Z" fill="white"/>
</svg>
