<svg width="25" height="24" viewBox="0 0 25 24" fill="none" xmlns="http://www.w3.org/2000/svg">
<path d="M8.63558 12.5155L9.66667 11.4844L13.5155 15.3333L6.84888 22L3 18.1511L4.38922 16.7225L5.45966 15.6914L6.49469 14.6171L7.56513 13.586L8.63558 12.5155Z" fill="#FEBE76"/>
<path d="M17.7225 3.42857L19.151 2L22.9999 5.84888L16.3333 12.5155L12.4844 8.66667L13.5155 7.63558L14.5859 6.56513L15.6209 5.53404L16.6914 4.45966L17.7225 3.42857Z" fill="#FEBE76"/>
<path d="M8.5568 4.73907L9.62725 5.80952L8.19868 7.19874L6.80946 8.62731L5.73901 7.55686L8.5568 4.73907Z" fill="#B3B3B3"/>
<path d="M8.55705 4.73906L5.73926 7.55685L5.38113 7.19872C4.58617 6.40376 4.58617 5.1759 5.38113 4.38094C5.77862 3.98346 6.29416 3.78668 6.77035 3.78668C7.2859 3.78668 7.80144 3.98346 8.15957 4.38094L8.55705 4.73906Z" fill="#B9F3FF"/>
<path d="M20.1427 16.3251L21.1738 20.174L17.325 19.1429L18.0412 17.0374L20.1427 16.3251Z" fill="#F2DEB9"/>
<path d="M16.3334 12.5155L12.4845 8.66665L9.62736 5.80951L8.19879 7.19873L6.80957 8.6273L9.66671 11.4844L13.5156 15.3333L17.3251 19.1428L18.0414 17.0374L20.1429 16.3251L16.3334 12.5155Z" fill="#EA7E23"/>
<path d="M16.3333 12.5155L20.1428 16.3251L18.0413 17.0374L8.19873 7.19873L9.6273 5.80951L12.4844 8.66665L16.3333 12.5155Z" fill="#D25400"/>
<path d="M19.1514 5.29399C19.2695 5.29399 19.3876 5.25463 19.5096 5.13657C19.7063 4.9398 19.7063 4.62102 19.5096 4.42425L18.1204 3.03503L17.7622 3.39316L17.3647 3.75129L18.754 5.1405C18.872 5.25857 18.994 5.29792 19.1514 5.29792V5.29399Z" fill="#E8A664"/>
<path d="M18.0811 6.56513C18.1598 6.64384 18.3211 6.72255 18.4392 6.72255C18.5573 6.72255 18.6793 6.68319 18.7973 6.56513C18.9941 6.36836 18.9941 6.04959 18.7973 5.85281L17.05 4.10547L16.6919 4.4636L16.3337 4.82172L18.0811 6.56907V6.56513Z" fill="#E8A664"/>
<path d="M16.6917 7.27744C16.7704 7.35615 16.9278 7.43486 17.0498 7.43486C17.1718 7.43486 17.286 7.3955 17.408 7.27744C17.6047 7.08067 17.6047 6.76189 17.408 6.56512L16.0187 5.1759L15.6606 5.53403L15.3025 5.89216L16.6917 7.28137V7.27744Z" fill="#E8A664"/>
<path d="M16.3337 8.82411C16.4518 8.82411 16.5699 8.78476 16.6919 8.66669C16.8886 8.46992 16.8886 8.15115 16.6919 7.95437L14.9445 6.20703L14.5864 6.56516L14.2283 6.92328L15.9756 8.67063C16.0937 8.78869 16.2157 8.82805 16.3337 8.82805V8.82411Z" fill="#E8A664"/>
<path d="M14.5862 9.38291C14.6649 9.46162 14.8224 9.54032 14.9444 9.54032C15.0664 9.54032 15.1805 9.50097 15.3025 9.38291C15.4993 9.18613 15.4993 8.86736 15.3025 8.67059L13.9133 7.28137L13.5551 7.6395L13.197 7.99763L14.5862 9.38684V9.38291Z" fill="#E8A664"/>
<path d="M10.0252 14.4203C10.1432 14.4203 10.2652 14.381 10.3833 14.2629C10.5801 14.0661 10.5801 13.7474 10.3833 13.5506L8.99409 12.1614L8.63596 12.5195L8.27783 12.8776L9.66705 14.2668C9.74576 14.3849 9.90318 14.4243 10.0252 14.4243V14.4203Z" fill="#E8A664"/>
<path d="M9.31299 15.8489C9.43105 15.8489 9.54912 15.8095 9.67112 15.6914C9.86789 15.4947 9.86789 15.1759 9.67112 14.9752L7.92377 13.2278L7.56565 13.586L7.20752 13.9441L8.95486 15.6914C9.07293 15.7701 9.19099 15.8489 9.31299 15.8489Z" fill="#E8A664"/>
<path d="M7.56549 16.4038C7.64419 16.4825 7.80555 16.5612 7.92361 16.5612C8.04168 16.5612 8.16368 16.5218 8.28174 16.4038C8.47851 16.207 8.47851 15.8882 8.28174 15.6915L6.89252 14.3022L6.5344 14.6604L6.17627 15.0185L7.56549 16.4077V16.4038Z" fill="#E8A664"/>
<path d="M6.84915 17.793C6.92786 17.8717 7.08528 17.9504 7.20728 17.9504C7.32928 17.9504 7.4434 17.9111 7.5654 17.793C7.76218 17.5962 7.76218 17.2775 7.5654 17.0768L5.81806 15.3294L5.45993 15.6875L5.10181 16.0457L6.84915 17.793Z" fill="#E8A664"/>
<path d="M5.81814 18.6273C5.93621 18.6273 6.05821 18.588 6.17627 18.4699C6.37304 18.2731 6.37304 17.9544 6.17627 17.7537L4.78705 16.3644L4.42893 16.7226L4.0708 17.0807L5.46002 18.4699C5.53873 18.588 5.70008 18.6273 5.81814 18.6273Z" fill="#E8A664"/>
</svg>
