<svg width="16" height="16" viewBox="0 0 16 16" fill="none" xmlns="http://www.w3.org/2000/svg">
<path d="M8.00038 15.7682C7.5822 15.7682 7.43066 15.4292 7.43066 15.0111L7.24316 4.90855C7.24316 4.49037 7.58216 4.15137 8.00035 4.15137C8.41854 4.15137 8.75754 4.49037 8.75754 4.90855L8.57004 15.0111C8.57007 15.4292 8.41857 15.7682 8.00038 15.7682Z" fill="#D5DEE4"/>
<path d="M8.00035 4.15137C7.58216 4.15137 7.24316 4.49037 7.24316 4.90855L7.29791 7.85812C7.52363 7.91027 7.75879 7.9378 8.00035 7.9378C8.24191 7.9378 8.47707 7.91027 8.70282 7.85815L8.75757 4.90859C8.75754 4.4904 8.41854 4.15137 8.00035 4.15137Z" fill="#BCCBD3"/>
<path d="M8 6.96875C9.91574 6.96875 11.4688 5.41574 11.4688 3.5C11.4688 1.58426 9.91574 0.03125 8 0.03125C6.08426 0.03125 4.53125 1.58426 4.53125 3.5C4.53125 5.41574 6.08426 6.96875 8 6.96875Z" fill="#FF473E"/>
<path d="M5.51583 2.74384C5.79041 2.9255 6.26334 2.69437 6.57214 2.2276C6.88095 1.76084 6.90869 1.23519 6.63411 1.05353C6.35954 0.871872 5.88661 1.103 5.5778 1.56977C5.269 2.03653 5.24125 2.56218 5.51583 2.74384Z" fill="#FD7085"/>
</svg>
