<svg width="40" height="40" viewBox="0 0 40 40" fill="none" xmlns="http://www.w3.org/2000/svg">
<path d="M22.8607 3.11807V4.47497C21.9463 4.23691 20.9563 4.15756 19.9663 4.15756C18.9763 4.15756 18.0619 4.23692 17.1475 4.39562V3.03872C17.1475 1.35647 18.4397 -0.000427246 20.0419 -0.000427246C21.644 -0.000427246 22.8607 1.43583 22.8607 3.11807Z" fill="#313A52"/>
<path d="M33.3725 40.0004H6.70312V17.9964C6.70312 10.3152 12.6431 3.99887 20.034 3.99887C27.425 3.99887 33.365 10.2359 33.365 17.9964V40.0004H33.3725Z" fill="#F88F19"/>
<path d="M29.5634 26.0029V28.9627H24.7646H10.5117V26.0029H29.5634Z" fill="#3F4751"/>
<path d="M24.7646 28.9627H29.5634V36.0011H10.5117V28.9627H24.7646Z" fill="#BCE4FF"/>
<path d="M29.5634 22.0036H10.5117V26.0029H29.5634V22.0036Z" fill="#BCE4FF"/>
<path d="M26.6693 16.9649V18.0044H13.3384V16.9649C13.3384 13.1243 16.3084 9.92642 20.0416 9.92642C23.7749 9.92642 26.6693 13.1243 26.6693 16.9649Z" fill="#BCE4FF"/>
<path d="M40.0001 30.9623V38.0008H33.2969V24.0033C35.1257 24.0033 36.8034 24.8047 38.0201 26.0823C39.2368 27.2805 40.0001 29.0421 40.0001 30.9623Z" fill="#F06000"/>
<path d="M6.70324 24.0033V38.0008H0V30.9623C0 29.0421 0.763279 27.2805 1.97999 26.0029C3.1967 24.8047 4.79883 24.0033 6.70324 24.0033Z" fill="#F06000"/>
<path d="M30.478 18.0044C29.9415 18.0044 29.488 18.4805 29.488 19.0439C29.488 19.6073 29.949 20.0834 30.478 20.0834H33.3724V18.0837H30.478V18.0044Z" fill="#F06000"/>
<path d="M10.5121 18.9645C10.5121 18.4011 10.0587 17.925 9.52209 17.925H6.62769V19.9246H9.52209C10.0587 20.004 10.5121 19.5279 10.5121 18.9645Z" fill="#F06000"/>
<path d="M24.7654 32.962C24.2288 32.962 23.7754 32.4859 23.7754 31.9225V28.8833C23.7754 28.3199 24.2364 27.8438 24.7654 27.8438C25.2944 27.8438 25.7554 28.3279 25.7554 28.8833V31.9225C25.7554 32.5652 25.2944 32.962 24.7654 32.962Z" fill="#3F4751"/>
</svg>
