<svg width="22" height="22" viewBox="0 0 22 22" fill="none" xmlns="http://www.w3.org/2000/svg">
<g filter="url(#filter0_i_115_1520)">
<path d="M21.0305 17.7516H0.967998C0.712998 17.7516 0.502998 17.5416 0.502998 17.2866V2.4733C0.502998 2.2183 0.712998 2.0083 0.967998 2.0083H21.023C21.2855 2.0083 21.488 2.2183 21.488 2.4733V17.2783C21.49 17.3396 21.4797 17.4007 21.4576 17.458C21.4355 17.5152 21.4021 17.5675 21.3594 17.6115C21.3167 17.6556 21.2656 17.6907 21.2091 17.7146C21.1526 17.7385 21.0919 17.7508 21.0305 17.7508" fill="url(#paint0_linear_115_1520)"/>
</g>
<path d="M1.253 17.0013V2.75879H20.7455V17.0013H1.253Z" fill="url(#paint1_linear_115_1520)"/>
<path d="M1.253 17.0013V2.75879H20.7455V17.0013H1.253Z" fill="url(#paint2_radial_115_1520)"/>
<path d="M1.253 17.0013V2.75879H20.7455V17.0013H1.253Z" fill="url(#paint3_radial_115_1520)"/>
<g filter="url(#filter1_f_115_1520)">
<path d="M1.41425 2.30371H21.0725C21.0924 2.30371 21.1115 2.31161 21.1255 2.32568C21.1396 2.33974 21.1475 2.35882 21.1475 2.37871V17.0675" stroke="url(#paint4_linear_115_1520)" stroke-width="0.225" stroke-linecap="round"/>
</g>
<g filter="url(#filter2_i_115_1520)">
<path d="M20.7455 17.0015H1.253V2.75902L0.562998 2.24902C0.525498 2.31652 0.502998 2.39902 0.502998 2.47402V17.279C0.502998 17.5415 0.712998 17.744 0.967998 17.744H21.023C21.203 17.744 21.353 17.6465 21.4355 17.4965L20.7455 17.0015Z" fill="url(#paint5_linear_115_1520)"/>
<path d="M20.7455 17.0015H1.253V2.75902L0.562998 2.24902C0.525498 2.31652 0.502998 2.39902 0.502998 2.47402V17.279C0.502998 17.5415 0.712998 17.744 0.967998 17.744H21.023C21.203 17.744 21.353 17.6465 21.4355 17.4965L20.7455 17.0015Z" fill="url(#paint6_linear_115_1520)"/>
<path d="M20.7455 17.0015H1.253V2.75902L0.562998 2.24902C0.525498 2.31652 0.502998 2.39902 0.502998 2.47402V17.279C0.502998 17.5415 0.712998 17.744 0.967998 17.744H21.023C21.203 17.744 21.353 17.6465 21.4355 17.4965L20.7455 17.0015Z" fill="url(#paint7_radial_115_1520)"/>
</g>
<path d="M11.003 10.6338C6.4505 10.6338 2.753 14.3238 2.753 18.8838V21.5088H19.2455V18.8838C19.2455 14.3238 15.5555 10.6338 11.003 10.6338Z" fill="url(#paint8_radial_115_1520)"/>
<path d="M11.003 10.6338C6.4505 10.6338 2.753 14.3238 2.753 18.8838V21.5088H19.2455V18.8838C19.2455 14.3238 15.5555 10.6338 11.003 10.6338Z" fill="url(#paint9_radial_115_1520)"/>
<path d="M11.003 10.6338C6.4505 10.6338 2.753 14.3238 2.753 18.8838V21.5088H19.2455V18.8838C19.2455 14.3238 15.5555 10.6338 11.003 10.6338Z" fill="url(#paint10_radial_115_1520)"/>
<path d="M16.0059 21.5089V12.3252C17.0148 13.0949 17.8322 14.0873 18.3942 15.2251C18.9562 16.3628 19.2477 17.615 19.2459 18.8839V21.5089H16.0059Z" fill="url(#paint11_radial_115_1520)"/>
<path d="M16.0059 21.5089V12.3252C17.0148 13.0949 17.8322 14.0873 18.3942 15.2251C18.9562 16.3628 19.2477 17.615 19.2459 18.8839V21.5089H16.0059Z" fill="url(#paint12_linear_115_1520)"/>
<path d="M16.0059 21.5089V12.3252C17.0148 13.0949 17.8322 14.0873 18.3942 15.2251C18.9562 16.3628 19.2477 17.615 19.2459 18.8839V21.5089H16.0059Z" fill="url(#paint13_linear_115_1520)"/>
<path d="M5.9705 21.5089V12.3252C4.96162 13.0949 4.14427 14.0873 3.58224 15.2251C3.02021 16.3628 2.72871 17.615 2.7305 18.8839V21.5089H5.9705Z" fill="url(#paint14_linear_115_1520)"/>
<path d="M5.9705 21.5089V12.3252C4.96162 13.0949 4.14427 14.0873 3.58224 15.2251C3.02021 16.3628 2.72871 17.615 2.7305 18.8839V21.5089H5.9705Z" fill="url(#paint15_radial_115_1520)"/>
<path d="M12.5405 11.624H9.458V21.509H12.5405V11.624Z" fill="url(#paint16_radial_115_1520)"/>
<g filter="url(#filter3_i_115_1520)">
<path d="M13.5076 11.054L14.5276 13.25C14.5951 13.3925 14.4901 13.5575 14.3326 13.5575L13.6104 13.3587C13.2939 13.2792 13.2826 13.5657 13.4026 13.6857L14.4226 14.8557C14.6176 15.0507 14.6926 15.3432 14.5951 15.6057L12.5401 21.5082V11.0532L13.5076 11.054Z" fill="url(#paint17_linear_115_1520)"/>
<path d="M13.5076 11.054L14.5276 13.25C14.5951 13.3925 14.4901 13.5575 14.3326 13.5575L13.6104 13.3587C13.2939 13.2792 13.2826 13.5657 13.4026 13.6857L14.4226 14.8557C14.6176 15.0507 14.6926 15.3432 14.5951 15.6057L12.5401 21.5082V11.0532L13.5076 11.054Z" fill="url(#paint18_radial_115_1520)"/>
<path d="M13.5076 11.054L14.5276 13.25C14.5951 13.3925 14.4901 13.5575 14.3326 13.5575L13.6104 13.3587C13.2939 13.2792 13.2826 13.5657 13.4026 13.6857L14.4226 14.8557C14.6176 15.0507 14.6926 15.3432 14.5951 15.6057L12.5401 21.5082V11.0532L13.5076 11.054Z" fill="url(#paint19_radial_115_1520)"/>
<path d="M13.5076 11.054L14.5276 13.25C14.5951 13.3925 14.4901 13.5575 14.3326 13.5575L13.6104 13.3587C13.2939 13.2792 13.2826 13.5657 13.4026 13.6857L14.4226 14.8557C14.6176 15.0507 14.6926 15.3432 14.5951 15.6057L12.5401 21.5082V11.0532L13.5076 11.054Z" fill="url(#paint20_radial_115_1520)"/>
</g>
<g filter="url(#filter4_i_115_1520)">
<path d="M8.4905 11.054L7.4705 13.25C7.403 13.3925 7.508 13.5575 7.6655 13.5575L8.3885 13.3587C8.705 13.2792 8.7155 13.5657 8.5955 13.6857L7.5755 14.8557C7.3805 15.0507 7.3055 15.3432 7.403 15.6057L9.458 21.5082V11.0532L8.4905 11.054Z" fill="url(#paint21_linear_115_1520)"/>
<path d="M8.4905 11.054L7.4705 13.25C7.403 13.3925 7.508 13.5575 7.6655 13.5575L8.3885 13.3587C8.705 13.2792 8.7155 13.5657 8.5955 13.6857L7.5755 14.8557C7.3805 15.0507 7.3055 15.3432 7.403 15.6057L9.458 21.5082V11.0532L8.4905 11.054Z" fill="url(#paint22_radial_115_1520)"/>
<path d="M8.4905 11.054L7.4705 13.25C7.403 13.3925 7.508 13.5575 7.6655 13.5575L8.3885 13.3587C8.705 13.2792 8.7155 13.5657 8.5955 13.6857L7.5755 14.8557C7.3805 15.0507 7.3055 15.3432 7.403 15.6057L9.458 21.5082V11.0532L8.4905 11.054Z" fill="url(#paint23_linear_115_1520)"/>
<path d="M8.4905 11.054L7.4705 13.25C7.403 13.3925 7.508 13.5575 7.6655 13.5575L8.3885 13.3587C8.705 13.2792 8.7155 13.5657 8.5955 13.6857L7.5755 14.8557C7.3805 15.0507 7.3055 15.3432 7.403 15.6057L9.458 21.5082V11.0532L8.4905 11.054Z" fill="url(#paint24_radial_115_1520)"/>
</g>
<path d="M11.003 13.0115C10.148 13.0115 9.458 12.3215 9.458 11.4665V9.54647C9.458 8.69147 10.148 8.00146 11.003 8.00146C11.858 8.00146 12.548 8.69147 12.548 9.54647V11.4665C12.546 11.8756 12.3826 12.2674 12.0933 12.5568C11.804 12.8461 11.4121 13.0095 11.003 13.0115Z" fill="url(#paint25_radial_115_1520)"/>
<g filter="url(#filter5_i_115_1520)">
<path d="M15.536 16.3398C15.9485 16.3398 16.286 16.6773 16.286 17.0898V18.8073H14.786V17.0898C14.786 16.6773 15.116 16.3398 15.536 16.3398Z" fill="url(#paint26_radial_115_1520)"/>
<path d="M15.536 16.3398C15.9485 16.3398 16.286 16.6773 16.286 17.0898V18.8073H14.786V17.0898C14.786 16.6773 15.116 16.3398 15.536 16.3398Z" fill="url(#paint27_radial_115_1520)"/>
</g>
<g filter="url(#filter6_i_115_1520)">
<path d="M6.46296 16.334C6.05046 16.334 5.71296 16.6715 5.71296 17.084V18.8015H7.21296V17.084C7.21296 16.6715 6.88296 16.334 6.46296 16.334Z" fill="url(#paint28_radial_115_1520)"/>
</g>
<path d="M6.7355 15.4189V21.5089H15.2405V14.6164C15.2405 14.2789 14.9705 14.0089 14.633 14.0089H8.153C7.3655 14.0014 6.7355 14.6389 6.7355 15.4189Z" fill="url(#paint29_linear_115_1520)"/>
<path fill-rule="evenodd" clip-rule="evenodd" d="M8.306 21.5089V15.2036H6.7355V21.5089H8.306Z" fill="#513358"/>
<path fill-rule="evenodd" clip-rule="evenodd" d="M8.306 21.5089V15.2036H6.7355V21.5089H8.306Z" fill="url(#paint30_linear_115_1520)"/>
<g filter="url(#filter7_i_115_1520)">
<path d="M9.00771 18.0351C9.01192 18.1306 8.99353 18.2257 8.95404 18.3128C8.91456 18.3998 8.85508 18.4763 8.78046 18.5361C8.85233 18.593 8.91019 18.6657 8.94958 18.7485C8.98898 18.8314 9.00886 18.9221 9.00771 19.0138C9.01051 19.1057 8.99136 19.1969 8.95183 19.2798C8.91231 19.3628 8.85356 19.4351 8.78046 19.4908C8.85233 19.5478 8.91019 19.6205 8.94958 19.7033C8.98898 19.7861 9.00886 19.8769 9.00771 19.9686C9.01064 20.0605 8.99154 20.1519 8.95201 20.235C8.91248 20.3181 8.85366 20.3906 8.78046 20.4463C8.92071 20.5536 9.00771 20.7388 9.00771 20.9466C9.00021 21.2616 8.76771 21.5091 8.49396 21.5091H6.29271C5.97246 21.5091 5.71296 21.2083 5.71296 20.8386V18.1356C5.71296 17.7658 5.97246 17.4658 6.29271 17.4658H8.42421C8.78046 17.4658 9.00171 17.7583 9.00771 18.0358" fill="url(#paint31_linear_115_1520)"/>
<path d="M9.00771 18.0351C9.01192 18.1306 8.99353 18.2257 8.95404 18.3128C8.91456 18.3998 8.85508 18.4763 8.78046 18.5361C8.85233 18.593 8.91019 18.6657 8.94958 18.7485C8.98898 18.8314 9.00886 18.9221 9.00771 19.0138C9.01051 19.1057 8.99136 19.1969 8.95183 19.2798C8.91231 19.3628 8.85356 19.4351 8.78046 19.4908C8.85233 19.5478 8.91019 19.6205 8.94958 19.7033C8.98898 19.7861 9.00886 19.8769 9.00771 19.9686C9.01064 20.0605 8.99154 20.1519 8.95201 20.235C8.91248 20.3181 8.85366 20.3906 8.78046 20.4463C8.92071 20.5536 9.00771 20.7388 9.00771 20.9466C9.00021 21.2616 8.76771 21.5091 8.49396 21.5091H6.29271C5.97246 21.5091 5.71296 21.2083 5.71296 20.8386V18.1356C5.71296 17.7658 5.97246 17.4658 6.29271 17.4658H8.42421C8.78046 17.4658 9.00171 17.7583 9.00771 18.0358" fill="url(#paint32_radial_115_1520)"/>
<path d="M9.00771 18.0351C9.01192 18.1306 8.99353 18.2257 8.95404 18.3128C8.91456 18.3998 8.85508 18.4763 8.78046 18.5361C8.85233 18.593 8.91019 18.6657 8.94958 18.7485C8.98898 18.8314 9.00886 18.9221 9.00771 19.0138C9.01051 19.1057 8.99136 19.1969 8.95183 19.2798C8.91231 19.3628 8.85356 19.4351 8.78046 19.4908C8.85233 19.5478 8.91019 19.6205 8.94958 19.7033C8.98898 19.7861 9.00886 19.8769 9.00771 19.9686C9.01064 20.0605 8.99154 20.1519 8.95201 20.235C8.91248 20.3181 8.85366 20.3906 8.78046 20.4463C8.92071 20.5536 9.00771 20.7388 9.00771 20.9466C9.00021 21.2616 8.76771 21.5091 8.49396 21.5091H6.29271C5.97246 21.5091 5.71296 21.2083 5.71296 20.8386V18.1356C5.71296 17.7658 5.97246 17.4658 6.29271 17.4658H8.42421C8.78046 17.4658 9.00171 17.7583 9.00771 18.0358" fill="url(#paint33_radial_115_1520)"/>
<path d="M9.00771 18.0351C9.01192 18.1306 8.99353 18.2257 8.95404 18.3128C8.91456 18.3998 8.85508 18.4763 8.78046 18.5361C8.85233 18.593 8.91019 18.6657 8.94958 18.7485C8.98898 18.8314 9.00886 18.9221 9.00771 19.0138C9.01051 19.1057 8.99136 19.1969 8.95183 19.2798C8.91231 19.3628 8.85356 19.4351 8.78046 19.4908C8.85233 19.5478 8.91019 19.6205 8.94958 19.7033C8.98898 19.7861 9.00886 19.8769 9.00771 19.9686C9.01064 20.0605 8.99154 20.1519 8.95201 20.235C8.91248 20.3181 8.85366 20.3906 8.78046 20.4463C8.92071 20.5536 9.00771 20.7388 9.00771 20.9466C9.00021 21.2616 8.76771 21.5091 8.49396 21.5091H6.29271C5.97246 21.5091 5.71296 21.2083 5.71296 20.8386V18.1356C5.71296 17.7658 5.97246 17.4658 6.29271 17.4658H8.42421C8.78046 17.4658 9.00171 17.7583 9.00771 18.0358" fill="url(#paint34_radial_115_1520)"/>
<path d="M9.00771 18.0351C9.01192 18.1306 8.99353 18.2257 8.95404 18.3128C8.91456 18.3998 8.85508 18.4763 8.78046 18.5361C8.85233 18.593 8.91019 18.6657 8.94958 18.7485C8.98898 18.8314 9.00886 18.9221 9.00771 19.0138C9.01051 19.1057 8.99136 19.1969 8.95183 19.2798C8.91231 19.3628 8.85356 19.4351 8.78046 19.4908C8.85233 19.5478 8.91019 19.6205 8.94958 19.7033C8.98898 19.7861 9.00886 19.8769 9.00771 19.9686C9.01064 20.0605 8.99154 20.1519 8.95201 20.235C8.91248 20.3181 8.85366 20.3906 8.78046 20.4463C8.92071 20.5536 9.00771 20.7388 9.00771 20.9466C9.00021 21.2616 8.76771 21.5091 8.49396 21.5091H6.29271C5.97246 21.5091 5.71296 21.2083 5.71296 20.8386V18.1356C5.71296 17.7658 5.97246 17.4658 6.29271 17.4658H8.42421C8.78046 17.4658 9.00171 17.7583 9.00771 18.0358" fill="url(#paint35_radial_115_1520)"/>
<path d="M9.00771 18.0351C9.01192 18.1306 8.99353 18.2257 8.95404 18.3128C8.91456 18.3998 8.85508 18.4763 8.78046 18.5361C8.85233 18.593 8.91019 18.6657 8.94958 18.7485C8.98898 18.8314 9.00886 18.9221 9.00771 19.0138C9.01051 19.1057 8.99136 19.1969 8.95183 19.2798C8.91231 19.3628 8.85356 19.4351 8.78046 19.4908C8.85233 19.5478 8.91019 19.6205 8.94958 19.7033C8.98898 19.7861 9.00886 19.8769 9.00771 19.9686C9.01064 20.0605 8.99154 20.1519 8.95201 20.235C8.91248 20.3181 8.85366 20.3906 8.78046 20.4463C8.92071 20.5536 9.00771 20.7388 9.00771 20.9466C9.00021 21.2616 8.76771 21.5091 8.49396 21.5091H6.29271C5.97246 21.5091 5.71296 21.2083 5.71296 20.8386V18.1356C5.71296 17.7658 5.97246 17.4658 6.29271 17.4658H8.42421C8.78046 17.4658 9.00171 17.7583 9.00771 18.0358" fill="url(#paint36_linear_115_1520)"/>
</g>
<g filter="url(#filter8_ii_115_1520)">
<path d="M12.9909 18.0351C12.9866 18.1305 13.0049 18.2256 13.0442 18.3127C13.0836 18.3997 13.1429 18.4763 13.2174 18.5361C13.1457 18.5931 13.088 18.6658 13.0487 18.7487C13.0094 18.8315 12.9897 18.9222 12.9909 19.0138C12.9909 19.2141 13.0772 19.3911 13.2174 19.4908C13.1457 19.5479 13.088 19.6206 13.0487 19.7034C13.0094 19.7862 12.9897 19.8769 12.9909 19.9686C12.9909 20.1688 13.0772 20.3458 13.2174 20.4463C13.1444 20.5072 13.086 20.5838 13.0468 20.6705C13.0076 20.7571 12.9885 20.8515 12.9909 20.9466C12.9977 21.2616 13.2309 21.5091 13.5039 21.5091H15.7052C16.0254 21.5091 16.2857 21.2083 16.2857 20.8386V18.1356C16.2857 17.7658 16.0254 17.4658 15.7052 17.4658H13.5737C13.2174 17.4658 12.9962 17.7583 12.9909 18.0358" fill="url(#paint37_linear_115_1520)"/>
<path d="M12.9909 18.0351C12.9866 18.1305 13.0049 18.2256 13.0442 18.3127C13.0836 18.3997 13.1429 18.4763 13.2174 18.5361C13.1457 18.5931 13.088 18.6658 13.0487 18.7487C13.0094 18.8315 12.9897 18.9222 12.9909 19.0138C12.9909 19.2141 13.0772 19.3911 13.2174 19.4908C13.1457 19.5479 13.088 19.6206 13.0487 19.7034C13.0094 19.7862 12.9897 19.8769 12.9909 19.9686C12.9909 20.1688 13.0772 20.3458 13.2174 20.4463C13.1444 20.5072 13.086 20.5838 13.0468 20.6705C13.0076 20.7571 12.9885 20.8515 12.9909 20.9466C12.9977 21.2616 13.2309 21.5091 13.5039 21.5091H15.7052C16.0254 21.5091 16.2857 21.2083 16.2857 20.8386V18.1356C16.2857 17.7658 16.0254 17.4658 15.7052 17.4658H13.5737C13.2174 17.4658 12.9962 17.7583 12.9909 18.0358" fill="url(#paint38_radial_115_1520)"/>
<path d="M12.9909 18.0351C12.9866 18.1305 13.0049 18.2256 13.0442 18.3127C13.0836 18.3997 13.1429 18.4763 13.2174 18.5361C13.1457 18.5931 13.088 18.6658 13.0487 18.7487C13.0094 18.8315 12.9897 18.9222 12.9909 19.0138C12.9909 19.2141 13.0772 19.3911 13.2174 19.4908C13.1457 19.5479 13.088 19.6206 13.0487 19.7034C13.0094 19.7862 12.9897 19.8769 12.9909 19.9686C12.9909 20.1688 13.0772 20.3458 13.2174 20.4463C13.1444 20.5072 13.086 20.5838 13.0468 20.6705C13.0076 20.7571 12.9885 20.8515 12.9909 20.9466C12.9977 21.2616 13.2309 21.5091 13.5039 21.5091H15.7052C16.0254 21.5091 16.2857 21.2083 16.2857 20.8386V18.1356C16.2857 17.7658 16.0254 17.4658 15.7052 17.4658H13.5737C13.2174 17.4658 12.9962 17.7583 12.9909 18.0358" fill="url(#paint39_radial_115_1520)"/>
<path d="M12.9909 18.0351C12.9866 18.1305 13.0049 18.2256 13.0442 18.3127C13.0836 18.3997 13.1429 18.4763 13.2174 18.5361C13.1457 18.5931 13.088 18.6658 13.0487 18.7487C13.0094 18.8315 12.9897 18.9222 12.9909 19.0138C12.9909 19.2141 13.0772 19.3911 13.2174 19.4908C13.1457 19.5479 13.088 19.6206 13.0487 19.7034C13.0094 19.7862 12.9897 19.8769 12.9909 19.9686C12.9909 20.1688 13.0772 20.3458 13.2174 20.4463C13.1444 20.5072 13.086 20.5838 13.0468 20.6705C13.0076 20.7571 12.9885 20.8515 12.9909 20.9466C12.9977 21.2616 13.2309 21.5091 13.5039 21.5091H15.7052C16.0254 21.5091 16.2857 21.2083 16.2857 20.8386V18.1356C16.2857 17.7658 16.0254 17.4658 15.7052 17.4658H13.5737C13.2174 17.4658 12.9962 17.7583 12.9909 18.0358" fill="url(#paint40_radial_115_1520)"/>
<path d="M12.9909 18.0351C12.9866 18.1305 13.0049 18.2256 13.0442 18.3127C13.0836 18.3997 13.1429 18.4763 13.2174 18.5361C13.1457 18.5931 13.088 18.6658 13.0487 18.7487C13.0094 18.8315 12.9897 18.9222 12.9909 19.0138C12.9909 19.2141 13.0772 19.3911 13.2174 19.4908C13.1457 19.5479 13.088 19.6206 13.0487 19.7034C13.0094 19.7862 12.9897 19.8769 12.9909 19.9686C12.9909 20.1688 13.0772 20.3458 13.2174 20.4463C13.1444 20.5072 13.086 20.5838 13.0468 20.6705C13.0076 20.7571 12.9885 20.8515 12.9909 20.9466C12.9977 21.2616 13.2309 21.5091 13.5039 21.5091H15.7052C16.0254 21.5091 16.2857 21.2083 16.2857 20.8386V18.1356C16.2857 17.7658 16.0254 17.4658 15.7052 17.4658H13.5737C13.2174 17.4658 12.9962 17.7583 12.9909 18.0358" fill="url(#paint41_radial_115_1520)"/>
</g>
<path d="M15.2405 16.2468V14.5323C15.2405 14.2413 14.9705 14.0088 14.633 14.0088H8.1395C7.358 14.0088 6.7355 14.5563 6.7355 15.2245C6.7355 15.7893 7.193 16.2468 7.75775 16.2468H15.2405Z" fill="url(#paint42_linear_115_1520)"/>
<path d="M7.36025 15.128C7.36025 14.84 7.59425 14.606 7.88225 14.606H15.2405V15.65H7.88225C7.81373 15.6501 7.74587 15.6366 7.68254 15.6105C7.61922 15.5843 7.56167 15.546 7.51318 15.4976C7.4647 15.4491 7.42624 15.3916 7.4 15.3284C7.37376 15.2651 7.36025 15.1965 7.36025 15.128Z" fill="url(#paint43_linear_115_1520)"/>
<g filter="url(#filter9_f_115_1520)">
<path d="M13.2676 18.5376H14.7091" stroke="url(#paint44_linear_115_1520)" stroke-width="0.075" stroke-linecap="round"/>
</g>
<g filter="url(#filter10_f_115_1520)">
<path d="M8.69863 18.5376H7.25788" stroke="url(#paint45_linear_115_1520)" stroke-width="0.075" stroke-linecap="round"/>
</g>
<g filter="url(#filter11_f_115_1520)">
<path d="M13.2676 19.4873H14.7091" stroke="url(#paint46_linear_115_1520)" stroke-width="0.075" stroke-linecap="round"/>
</g>
<g filter="url(#filter12_f_115_1520)">
<path d="M8.69863 19.4873H7.25788" stroke="url(#paint47_linear_115_1520)" stroke-width="0.075" stroke-linecap="round"/>
</g>
<g filter="url(#filter13_f_115_1520)">
<path d="M13.2676 20.4365H14.7091" stroke="url(#paint48_linear_115_1520)" stroke-width="0.075" stroke-linecap="round"/>
</g>
<g filter="url(#filter14_f_115_1520)">
<path d="M8.69863 20.4365H7.25788" stroke="url(#paint49_linear_115_1520)" stroke-width="0.075" stroke-linecap="round"/>
</g>
<path d="M14.6337 8.16779C14.878 8.15968 15.1143 8.079 15.3125 7.93604V8.63428C15.3125 9.30403 14.9135 9.90103 14.3075 10.1485C14.4355 9.87554 14.5217 9.58054 14.5662 9.26354L14.6337 8.16779Z" fill="url(#paint50_radial_115_1520)"/>
<path d="M7.3419 8.16827C7.09766 8.16017 6.86136 8.07949 6.66315 7.93652V8.63477C6.66315 9.30452 7.06215 9.90152 7.6689 10.149C7.53841 9.86875 7.45092 9.57039 7.4094 9.26402L7.3419 8.16827Z" fill="url(#paint51_radial_115_1520)"/>
<g filter="url(#filter15_ii_115_1520)">
<path d="M7.37 9.30405C7.46285 10.011 7.8097 10.66 8.34582 11.13C8.88195 11.6 9.57076 11.859 10.2837 11.8586H11.699C12.412 11.859 13.1008 11.6 13.6369 11.13C14.173 10.66 14.5199 10.011 14.6127 9.30405C14.7012 7.89105 14.7905 6.48405 14.8565 5.0718C14.8534 4.79459 14.7445 4.52903 14.5521 4.32941C14.3598 4.12979 14.0984 4.01117 13.8215 3.9978H12.7715C12.42 3.99736 12.0762 3.89486 11.7818 3.70274C11.4874 3.51062 11.2552 3.23715 11.1132 2.91555C11.0767 2.82288 11.0131 2.74338 10.9307 2.68745C10.8482 2.63152 10.7509 2.60176 10.6512 2.60205H9.6965C8.31275 2.60205 7.1915 3.7368 7.1915 5.13705C7.1915 6.53205 7.2785 7.90455 7.37 9.30405Z" fill="url(#paint52_radial_115_1520)"/>
</g>
<path d="M7.37 9.30405C7.46285 10.011 7.8097 10.66 8.34582 11.13C8.88195 11.6 9.57076 11.859 10.2837 11.8586H11.699C12.412 11.859 13.1008 11.6 13.6369 11.13C14.173 10.66 14.5199 10.011 14.6127 9.30405C14.7012 7.89105 14.7905 6.48405 14.8565 5.0718C14.8534 4.79459 14.7445 4.52903 14.5521 4.32941C14.3598 4.12979 14.0984 4.01117 13.8215 3.9978H12.7715C12.42 3.99736 12.0762 3.89486 11.7818 3.70274C11.4874 3.51062 11.2552 3.23715 11.1132 2.91555C11.0767 2.82288 11.0131 2.74338 10.9307 2.68745C10.8482 2.63152 10.7509 2.60176 10.6512 2.60205H9.6965C8.31275 2.60205 7.1915 3.7368 7.1915 5.13705C7.1915 6.53205 7.2785 7.90455 7.37 9.30405Z" fill="url(#paint53_linear_115_1520)"/>
<path d="M7.37 9.30405C7.46285 10.011 7.8097 10.66 8.34582 11.13C8.88195 11.6 9.57076 11.859 10.2837 11.8586H11.699C12.412 11.859 13.1008 11.6 13.6369 11.13C14.173 10.66 14.5199 10.011 14.6127 9.30405C14.7012 7.89105 14.7905 6.48405 14.8565 5.0718C14.8534 4.79459 14.7445 4.52903 14.5521 4.32941C14.3598 4.12979 14.0984 4.01117 13.8215 3.9978H12.7715C12.42 3.99736 12.0762 3.89486 11.7818 3.70274C11.4874 3.51062 11.2552 3.23715 11.1132 2.91555C11.0767 2.82288 11.0131 2.74338 10.9307 2.68745C10.8482 2.63152 10.7509 2.60176 10.6512 2.60205H9.6965C8.31275 2.60205 7.1915 3.7368 7.1915 5.13705C7.1915 6.53205 7.2785 7.90455 7.37 9.30405Z" fill="url(#paint54_radial_115_1520)"/>
<path d="M7.37 9.30405C7.46285 10.011 7.8097 10.66 8.34582 11.13C8.88195 11.6 9.57076 11.859 10.2837 11.8586H11.699C12.412 11.859 13.1008 11.6 13.6369 11.13C14.173 10.66 14.5199 10.011 14.6127 9.30405C14.7012 7.89105 14.7905 6.48405 14.8565 5.0718C14.8534 4.79459 14.7445 4.52903 14.5521 4.32941C14.3598 4.12979 14.0984 4.01117 13.8215 3.9978H12.7715C12.42 3.99736 12.0762 3.89486 11.7818 3.70274C11.4874 3.51062 11.2552 3.23715 11.1132 2.91555C11.0767 2.82288 11.0131 2.74338 10.9307 2.68745C10.8482 2.63152 10.7509 2.60176 10.6512 2.60205H9.6965C8.31275 2.60205 7.1915 3.7368 7.1915 5.13705C7.1915 6.53205 7.2785 7.90455 7.37 9.30405Z" fill="url(#paint55_radial_115_1520)"/>
<path d="M7.37 9.30405C7.46285 10.011 7.8097 10.66 8.34582 11.13C8.88195 11.6 9.57076 11.859 10.2837 11.8586H11.699C12.412 11.859 13.1008 11.6 13.6369 11.13C14.173 10.66 14.5199 10.011 14.6127 9.30405C14.7012 7.89105 14.7905 6.48405 14.8565 5.0718C14.8534 4.79459 14.7445 4.52903 14.5521 4.32941C14.3598 4.12979 14.0984 4.01117 13.8215 3.9978H12.7715C12.42 3.99736 12.0762 3.89486 11.7818 3.70274C11.4874 3.51062 11.2552 3.23715 11.1132 2.91555C11.0767 2.82288 11.0131 2.74338 10.9307 2.68745C10.8482 2.63152 10.7509 2.60176 10.6512 2.60205H9.6965C8.31275 2.60205 7.1915 3.7368 7.1915 5.13705C7.1915 6.53205 7.2785 7.90455 7.37 9.30405Z" fill="url(#paint56_radial_115_1520)"/>
<path d="M7.37 9.30405C7.46285 10.011 7.8097 10.66 8.34582 11.13C8.88195 11.6 9.57076 11.859 10.2837 11.8586H11.699C12.412 11.859 13.1008 11.6 13.6369 11.13C14.173 10.66 14.5199 10.011 14.6127 9.30405C14.7012 7.89105 14.7905 6.48405 14.8565 5.0718C14.8534 4.79459 14.7445 4.52903 14.5521 4.32941C14.3598 4.12979 14.0984 4.01117 13.8215 3.9978H12.7715C12.42 3.99736 12.0762 3.89486 11.7818 3.70274C11.4874 3.51062 11.2552 3.23715 11.1132 2.91555C11.0767 2.82288 11.0131 2.74338 10.9307 2.68745C10.8482 2.63152 10.7509 2.60176 10.6512 2.60205H9.6965C8.31275 2.60205 7.1915 3.7368 7.1915 5.13705C7.1915 6.53205 7.2785 7.90455 7.37 9.30405Z" fill="url(#paint57_radial_115_1520)"/>
<path d="M7.37 9.30405C7.46285 10.011 7.8097 10.66 8.34582 11.13C8.88195 11.6 9.57076 11.859 10.2837 11.8586H11.699C12.412 11.859 13.1008 11.6 13.6369 11.13C14.173 10.66 14.5199 10.011 14.6127 9.30405C14.7012 7.89105 14.7905 6.48405 14.8565 5.0718C14.8534 4.79459 14.7445 4.52903 14.5521 4.32941C14.3598 4.12979 14.0984 4.01117 13.8215 3.9978H12.7715C12.42 3.99736 12.0762 3.89486 11.7818 3.70274C11.4874 3.51062 11.2552 3.23715 11.1132 2.91555C11.0767 2.82288 11.0131 2.74338 10.9307 2.68745C10.8482 2.63152 10.7509 2.60176 10.6512 2.60205H9.6965C8.31275 2.60205 7.1915 3.7368 7.1915 5.13705C7.1915 6.53205 7.2785 7.90455 7.37 9.30405Z" fill="url(#paint58_radial_115_1520)"/>
<path d="M7.37 9.30405C7.46285 10.011 7.8097 10.66 8.34582 11.13C8.88195 11.6 9.57076 11.859 10.2837 11.8586H11.699C12.412 11.859 13.1008 11.6 13.6369 11.13C14.173 10.66 14.5199 10.011 14.6127 9.30405C14.7012 7.89105 14.7905 6.48405 14.8565 5.0718C14.8534 4.79459 14.7445 4.52903 14.5521 4.32941C14.3598 4.12979 14.0984 4.01117 13.8215 3.9978H12.7715C12.42 3.99736 12.0762 3.89486 11.7818 3.70274C11.4874 3.51062 11.2552 3.23715 11.1132 2.91555C11.0767 2.82288 11.0131 2.74338 10.9307 2.68745C10.8482 2.63152 10.7509 2.60176 10.6512 2.60205H9.6965C8.31275 2.60205 7.1915 3.7368 7.1915 5.13705C7.1915 6.53205 7.2785 7.90455 7.37 9.30405Z" fill="url(#paint59_radial_115_1520)"/>
<g filter="url(#filter16_f_115_1520)">
<path d="M10.6872 6.83734L10.244 8.21584C10.1682 8.49934 10.3497 8.78359 10.607 8.78359H11.156C11.4132 8.78359 11.5947 8.49559 11.5197 8.21584L11.1485 6.83734C11.069 6.53209 10.7705 6.53209 10.6872 6.83734Z" fill="#D69790"/>
</g>
<g filter="url(#filter17_f_115_1520)">
<path d="M10.7017 6.69427L10.3027 8.07277C10.2217 8.35702 10.4167 8.64052 10.6935 8.64052H11.283C11.5605 8.64052 11.7555 8.35252 11.6737 8.07277L11.2747 6.69427C11.19 6.38902 10.791 6.38902 10.7017 6.69427Z" fill="#F6BFAB"/>
<path d="M10.7017 6.69427L10.3027 8.07277C10.2217 8.35702 10.4167 8.64052 10.6935 8.64052H11.283C11.5605 8.64052 11.7555 8.35252 11.6737 8.07277L11.2747 6.69427C11.19 6.38902 10.791 6.38902 10.7017 6.69427Z" fill="url(#paint60_linear_115_1520)"/>
<path d="M10.7017 6.69427L10.3027 8.07277C10.2217 8.35702 10.4167 8.64052 10.6935 8.64052H11.283C11.5605 8.64052 11.7555 8.35252 11.6737 8.07277L11.2747 6.69427C11.19 6.38902 10.791 6.38902 10.7017 6.69427Z" fill="url(#paint61_radial_115_1520)"/>
<path d="M10.7017 6.69427L10.3027 8.07277C10.2217 8.35702 10.4167 8.64052 10.6935 8.64052H11.283C11.5605 8.64052 11.7555 8.35252 11.6737 8.07277L11.2747 6.69427C11.19 6.38902 10.791 6.38902 10.7017 6.69427Z" fill="url(#paint62_linear_115_1520)"/>
<path d="M10.7017 6.69427L10.3027 8.07277C10.2217 8.35702 10.4167 8.64052 10.6935 8.64052H11.283C11.5605 8.64052 11.7555 8.35252 11.6737 8.07277L11.2747 6.69427C11.19 6.38902 10.791 6.38902 10.7017 6.69427Z" fill="url(#paint63_radial_115_1520)"/>
<path d="M10.7017 6.69427L10.3027 8.07277C10.2217 8.35702 10.4167 8.64052 10.6935 8.64052H11.283C11.5605 8.64052 11.7555 8.35252 11.6737 8.07277L11.2747 6.69427C11.19 6.38902 10.791 6.38902 10.7017 6.69427Z" fill="url(#paint64_linear_115_1520)"/>
</g>
<g filter="url(#filter18_f_115_1520)">
<path d="M9.97513 9.10628C9.94198 9.08947 9.90428 9.08382 9.86766 9.09017C9.83103 9.09653 9.79744 9.11454 9.77188 9.14153C9.74555 9.16781 9.72938 9.20256 9.72622 9.23962C9.72307 9.27669 9.73313 9.31367 9.75463 9.34403C10.0156 9.74003 10.4709 10.004 10.9884 10.004C11.5059 10.004 11.9619 9.74003 12.2229 9.34403C12.2441 9.31325 12.2539 9.27603 12.2506 9.23878C12.2474 9.20154 12.2312 9.16661 12.2049 9.14003C12.1792 9.11345 12.1457 9.09583 12.1092 9.08975C12.0727 9.08367 12.0353 9.08947 12.0024 9.10628H12.0016C11.7091 9.25928 11.3641 9.34628 10.9891 9.34628C10.6367 9.34962 10.2887 9.26726 9.97513 9.10628Z" stroke="url(#paint65_linear_115_1520)" stroke-width="0.1125"/>
</g>
<path d="M10.988 9.40243C10.6077 9.40243 10.25 9.31243 9.94925 9.15643C9.8465 9.10393 9.73625 9.22018 9.80075 9.31318C10.052 9.69418 10.4892 9.94768 10.988 9.94768C11.4867 9.94768 11.9247 9.69418 12.1752 9.31318C12.2405 9.21568 12.1302 9.10393 12.0267 9.15568C11.7054 9.32034 11.3491 9.40523 10.988 9.40318" fill="url(#paint66_radial_115_1520)"/>
<g filter="url(#filter19_ii_115_1520)">
<path d="M14.6292 2.2475C15.0318 2.38591 15.3699 2.66646 15.5802 3.0365C15.7471 3.32766 15.828 3.66009 15.8138 3.99534C15.7996 4.3306 15.6908 4.65499 15.5 4.931C15.3684 5.12457 15.2978 5.35317 15.2975 5.58725V6.4775C15.147 6.37561 14.9764 6.30708 14.7972 6.2765L14.8557 5.07125C14.8526 4.79416 14.7439 4.52871 14.5517 4.3291C14.3594 4.1295 14.0983 4.0108 13.8215 3.99725H12.7715C12.0552 3.99725 11.4065 3.575 11.1125 2.915C11.076 2.82245 11.0125 2.74303 10.9302 2.68711C10.8479 2.63119 10.7507 2.60135 10.6512 2.6015H9.6965C8.312 2.6015 7.19075 3.7355 7.19075 5.13575L7.21325 6.2885C7.02052 6.31251 6.83582 6.38023 6.67325 6.4865V5.5865C6.67292 5.35242 6.60238 5.12382 6.47075 4.93025C6.28912 4.66269 6.18326 4.35099 6.16438 4.02816C6.1455 3.70533 6.2143 3.38341 6.3635 3.0965C6.56937 2.70116 6.91795 2.39896 7.3385 2.25125C7.7687 2.0995 8.13449 1.80592 8.37575 1.41875C8.59557 1.06441 8.93509 0.800581 9.33275 0.675093C9.7304 0.549605 10.1599 0.57077 10.5432 0.73475C10.6846 0.796057 10.837 0.827691 10.991 0.827691C11.145 0.827691 11.2974 0.796057 11.4387 0.73475C11.6495 0.64625 11.8805 0.59375 12.1227 0.59375C12.7557 0.59375 13.3085 0.93575 13.6152 1.44275C13.8455 1.82525 14.2077 2.10275 14.6292 2.2475Z" fill="url(#paint67_linear_115_1520)"/>
<path d="M14.6292 2.2475C15.0318 2.38591 15.3699 2.66646 15.5802 3.0365C15.7471 3.32766 15.828 3.66009 15.8138 3.99534C15.7996 4.3306 15.6908 4.65499 15.5 4.931C15.3684 5.12457 15.2978 5.35317 15.2975 5.58725V6.4775C15.147 6.37561 14.9764 6.30708 14.7972 6.2765L14.8557 5.07125C14.8526 4.79416 14.7439 4.52871 14.5517 4.3291C14.3594 4.1295 14.0983 4.0108 13.8215 3.99725H12.7715C12.0552 3.99725 11.4065 3.575 11.1125 2.915C11.076 2.82245 11.0125 2.74303 10.9302 2.68711C10.8479 2.63119 10.7507 2.60135 10.6512 2.6015H9.6965C8.312 2.6015 7.19075 3.7355 7.19075 5.13575L7.21325 6.2885C7.02052 6.31251 6.83582 6.38023 6.67325 6.4865V5.5865C6.67292 5.35242 6.60238 5.12382 6.47075 4.93025C6.28912 4.66269 6.18326 4.35099 6.16438 4.02816C6.1455 3.70533 6.2143 3.38341 6.3635 3.0965C6.56937 2.70116 6.91795 2.39896 7.3385 2.25125C7.7687 2.0995 8.13449 1.80592 8.37575 1.41875C8.59557 1.06441 8.93509 0.800581 9.33275 0.675093C9.7304 0.549605 10.1599 0.57077 10.5432 0.73475C10.6846 0.796057 10.837 0.827691 10.991 0.827691C11.145 0.827691 11.2974 0.796057 11.4387 0.73475C11.6495 0.64625 11.8805 0.59375 12.1227 0.59375C12.7557 0.59375 13.3085 0.93575 13.6152 1.44275C13.8455 1.82525 14.2077 2.10275 14.6292 2.2475Z" fill="url(#paint68_radial_115_1520)"/>
<path d="M14.6292 2.2475C15.0318 2.38591 15.3699 2.66646 15.5802 3.0365C15.7471 3.32766 15.828 3.66009 15.8138 3.99534C15.7996 4.3306 15.6908 4.65499 15.5 4.931C15.3684 5.12457 15.2978 5.35317 15.2975 5.58725V6.4775C15.147 6.37561 14.9764 6.30708 14.7972 6.2765L14.8557 5.07125C14.8526 4.79416 14.7439 4.52871 14.5517 4.3291C14.3594 4.1295 14.0983 4.0108 13.8215 3.99725H12.7715C12.0552 3.99725 11.4065 3.575 11.1125 2.915C11.076 2.82245 11.0125 2.74303 10.9302 2.68711C10.8479 2.63119 10.7507 2.60135 10.6512 2.6015H9.6965C8.312 2.6015 7.19075 3.7355 7.19075 5.13575L7.21325 6.2885C7.02052 6.31251 6.83582 6.38023 6.67325 6.4865V5.5865C6.67292 5.35242 6.60238 5.12382 6.47075 4.93025C6.28912 4.66269 6.18326 4.35099 6.16438 4.02816C6.1455 3.70533 6.2143 3.38341 6.3635 3.0965C6.56937 2.70116 6.91795 2.39896 7.3385 2.25125C7.7687 2.0995 8.13449 1.80592 8.37575 1.41875C8.59557 1.06441 8.93509 0.800581 9.33275 0.675093C9.7304 0.549605 10.1599 0.57077 10.5432 0.73475C10.6846 0.796057 10.837 0.827691 10.991 0.827691C11.145 0.827691 11.2974 0.796057 11.4387 0.73475C11.6495 0.64625 11.8805 0.59375 12.1227 0.59375C12.7557 0.59375 13.3085 0.93575 13.6152 1.44275C13.8455 1.82525 14.2077 2.10275 14.6292 2.2475Z" fill="url(#paint69_radial_115_1520)"/>
<path d="M14.6292 2.2475C15.0318 2.38591 15.3699 2.66646 15.5802 3.0365C15.7471 3.32766 15.828 3.66009 15.8138 3.99534C15.7996 4.3306 15.6908 4.65499 15.5 4.931C15.3684 5.12457 15.2978 5.35317 15.2975 5.58725V6.4775C15.147 6.37561 14.9764 6.30708 14.7972 6.2765L14.8557 5.07125C14.8526 4.79416 14.7439 4.52871 14.5517 4.3291C14.3594 4.1295 14.0983 4.0108 13.8215 3.99725H12.7715C12.0552 3.99725 11.4065 3.575 11.1125 2.915C11.076 2.82245 11.0125 2.74303 10.9302 2.68711C10.8479 2.63119 10.7507 2.60135 10.6512 2.6015H9.6965C8.312 2.6015 7.19075 3.7355 7.19075 5.13575L7.21325 6.2885C7.02052 6.31251 6.83582 6.38023 6.67325 6.4865V5.5865C6.67292 5.35242 6.60238 5.12382 6.47075 4.93025C6.28912 4.66269 6.18326 4.35099 6.16438 4.02816C6.1455 3.70533 6.2143 3.38341 6.3635 3.0965C6.56937 2.70116 6.91795 2.39896 7.3385 2.25125C7.7687 2.0995 8.13449 1.80592 8.37575 1.41875C8.59557 1.06441 8.93509 0.800581 9.33275 0.675093C9.7304 0.549605 10.1599 0.57077 10.5432 0.73475C10.6846 0.796057 10.837 0.827691 10.991 0.827691C11.145 0.827691 11.2974 0.796057 11.4387 0.73475C11.6495 0.64625 11.8805 0.59375 12.1227 0.59375C12.7557 0.59375 13.3085 0.93575 13.6152 1.44275C13.8455 1.82525 14.2077 2.10275 14.6292 2.2475Z" fill="url(#paint70_radial_115_1520)"/>
<path d="M14.6292 2.2475C15.0318 2.38591 15.3699 2.66646 15.5802 3.0365C15.7471 3.32766 15.828 3.66009 15.8138 3.99534C15.7996 4.3306 15.6908 4.65499 15.5 4.931C15.3684 5.12457 15.2978 5.35317 15.2975 5.58725V6.4775C15.147 6.37561 14.9764 6.30708 14.7972 6.2765L14.8557 5.07125C14.8526 4.79416 14.7439 4.52871 14.5517 4.3291C14.3594 4.1295 14.0983 4.0108 13.8215 3.99725H12.7715C12.0552 3.99725 11.4065 3.575 11.1125 2.915C11.076 2.82245 11.0125 2.74303 10.9302 2.68711C10.8479 2.63119 10.7507 2.60135 10.6512 2.6015H9.6965C8.312 2.6015 7.19075 3.7355 7.19075 5.13575L7.21325 6.2885C7.02052 6.31251 6.83582 6.38023 6.67325 6.4865V5.5865C6.67292 5.35242 6.60238 5.12382 6.47075 4.93025C6.28912 4.66269 6.18326 4.35099 6.16438 4.02816C6.1455 3.70533 6.2143 3.38341 6.3635 3.0965C6.56937 2.70116 6.91795 2.39896 7.3385 2.25125C7.7687 2.0995 8.13449 1.80592 8.37575 1.41875C8.59557 1.06441 8.93509 0.800581 9.33275 0.675093C9.7304 0.549605 10.1599 0.57077 10.5432 0.73475C10.6846 0.796057 10.837 0.827691 10.991 0.827691C11.145 0.827691 11.2974 0.796057 11.4387 0.73475C11.6495 0.64625 11.8805 0.59375 12.1227 0.59375C12.7557 0.59375 13.3085 0.93575 13.6152 1.44275C13.8455 1.82525 14.2077 2.10275 14.6292 2.2475Z" fill="url(#paint71_radial_115_1520)"/>
</g>
<g filter="url(#filter20_i_115_1520)">
<path d="M13.7874 4.99556C13.64 4.85634 13.4639 4.75112 13.2714 4.68731C13.0434 4.61531 12.7577 4.59581 12.3624 4.64456C12.3353 4.64786 12.3092 4.65646 12.2854 4.66987C12.2616 4.68329 12.2407 4.70125 12.2239 4.72273C12.2071 4.74422 12.1947 4.76881 12.1874 4.79509C12.18 4.82138 12.178 4.84885 12.1813 4.87593C12.1846 4.90302 12.1932 4.92919 12.2066 4.95295C12.22 4.97671 12.238 4.9976 12.2595 5.01441C12.2809 5.03123 12.3055 5.04366 12.3318 5.05097C12.3581 5.05829 12.3856 5.06036 12.4127 5.05706C12.7734 5.01281 12.9947 5.03606 13.1469 5.08406C13.2954 5.13056 13.3959 5.20631 13.5144 5.30906C13.556 5.34526 13.6102 5.36346 13.6652 5.35967C13.7202 5.35587 13.7715 5.33038 13.8077 5.28881C13.8439 5.24724 13.8621 5.19298 13.8583 5.13799C13.8545 5.08299 13.829 5.03176 13.7874 4.99556Z" fill="#202020"/>
</g>
<g filter="url(#filter21_i_115_1520)">
<path d="M8.42975 4.91391C8.82308 4.68321 9.2814 4.58833 9.734 4.64391C9.76113 4.64721 9.78735 4.65582 9.81116 4.66925C9.83496 4.68268 9.85589 4.70067 9.87275 4.72219C9.8896 4.74371 9.90205 4.76834 9.90938 4.79467C9.91672 4.82101 9.9188 4.84852 9.9155 4.87566C9.9122 4.90279 9.90359 4.92901 9.89016 4.95282C9.87672 4.97662 9.85873 4.99755 9.83721 5.01441C9.81569 5.03126 9.79106 5.04371 9.76473 5.05105C9.7384 5.05838 9.71088 5.06046 9.68375 5.05716C9.32296 5.01295 8.95762 5.08802 8.6435 5.27091C8.61995 5.28466 8.59716 5.29968 8.57525 5.31591L8.573 5.31741C8.52934 5.35122 8.47403 5.36631 8.41925 5.35935C8.36446 5.35238 8.31469 5.32394 8.28087 5.28028C8.24706 5.23662 8.23197 5.18132 8.23893 5.12653C8.2459 5.07175 8.27434 5.02197 8.318 4.98816L8.42975 4.91391Z" fill="#202020"/>
</g>
<g filter="url(#filter22_if_115_1520)">
<path d="M11.1623 3.01866L11.1128 2.91591C11.0763 2.82324 11.0127 2.74374 10.9302 2.68781C10.8478 2.63188 10.7504 2.60211 10.6508 2.60241H9.69608C8.31233 2.60241 7.19033 3.73641 7.19033 5.13666V5.34291C6.93533 5.14866 6.61433 4.73991 6.61433 4.07691C6.61433 3.27291 7.20083 2.86716 7.57433 2.60766C7.68083 2.53491 7.76933 2.47266 7.82258 2.41791L7.89758 2.33916C8.16008 2.06166 8.62658 1.56591 9.44258 1.34916C9.81205 1.25587 10.1927 1.21422 10.5736 1.22541C10.9276 1.23441 11.1781 1.54041 11.1781 1.89516V3.00891L11.1623 3.01866Z" fill="#23181C"/>
<path d="M11.1623 3.01866L11.1128 2.91591C11.0763 2.82324 11.0127 2.74374 10.9302 2.68781C10.8478 2.63188 10.7504 2.60211 10.6508 2.60241H9.69608C8.31233 2.60241 7.19033 3.73641 7.19033 5.13666V5.34291C6.93533 5.14866 6.61433 4.73991 6.61433 4.07691C6.61433 3.27291 7.20083 2.86716 7.57433 2.60766C7.68083 2.53491 7.76933 2.47266 7.82258 2.41791L7.89758 2.33916C8.16008 2.06166 8.62658 1.56591 9.44258 1.34916C9.81205 1.25587 10.1927 1.21422 10.5736 1.22541C10.9276 1.23441 11.1781 1.54041 11.1781 1.89516V3.00891L11.1623 3.01866Z" fill="url(#paint72_radial_115_1520)"/>
<path d="M11.1623 3.01866L11.1128 2.91591C11.0763 2.82324 11.0127 2.74374 10.9302 2.68781C10.8478 2.63188 10.7504 2.60211 10.6508 2.60241H9.69608C8.31233 2.60241 7.19033 3.73641 7.19033 5.13666V5.34291C6.93533 5.14866 6.61433 4.73991 6.61433 4.07691C6.61433 3.27291 7.20083 2.86716 7.57433 2.60766C7.68083 2.53491 7.76933 2.47266 7.82258 2.41791L7.89758 2.33916C8.16008 2.06166 8.62658 1.56591 9.44258 1.34916C9.81205 1.25587 10.1927 1.21422 10.5736 1.22541C10.9276 1.23441 11.1781 1.54041 11.1781 1.89516V3.00891L11.1623 3.01866Z" fill="url(#paint73_radial_115_1520)"/>
</g>
<g filter="url(#filter23_f_115_1520)">
<path d="M14.8973 5.4686L14.8748 4.99535C14.8673 4.42235 14.3948 3.94985 13.8211 3.92585H12.7711C12.4451 3.92587 12.1252 3.83813 11.8449 3.67185C11.5646 3.50557 11.3343 3.26688 11.1781 2.98085C11.1781 2.98085 11.1346 2.8796 11.0881 2.70485C10.8961 1.97735 11.5913 1.42085 12.3301 1.5641C13.0598 1.70585 13.8916 1.95185 14.5066 2.3531C15.8153 3.20585 15.5866 4.7441 14.8966 5.4686" fill="#1F151B"/>
<path d="M14.8973 5.4686L14.8748 4.99535C14.8673 4.42235 14.3948 3.94985 13.8211 3.92585H12.7711C12.4451 3.92587 12.1252 3.83813 11.8449 3.67185C11.5646 3.50557 11.3343 3.26688 11.1781 2.98085C11.1781 2.98085 11.1346 2.8796 11.0881 2.70485C10.8961 1.97735 11.5913 1.42085 12.3301 1.5641C13.0598 1.70585 13.8916 1.95185 14.5066 2.3531C15.8153 3.20585 15.5866 4.7441 14.8966 5.4686" fill="url(#paint74_radial_115_1520)"/>
<path d="M14.8973 5.4686L14.8748 4.99535C14.8673 4.42235 14.3948 3.94985 13.8211 3.92585H12.7711C12.4451 3.92587 12.1252 3.83813 11.8449 3.67185C11.5646 3.50557 11.3343 3.26688 11.1781 2.98085C11.1781 2.98085 11.1346 2.8796 11.0881 2.70485C10.8961 1.97735 11.5913 1.42085 12.3301 1.5641C13.0598 1.70585 13.8916 1.95185 14.5066 2.3531C15.8153 3.20585 15.5866 4.7441 14.8966 5.4686" fill="url(#paint75_radial_115_1520)"/>
<path d="M14.8973 5.4686L14.8748 4.99535C14.8673 4.42235 14.3948 3.94985 13.8211 3.92585H12.7711C12.4451 3.92587 12.1252 3.83813 11.8449 3.67185C11.5646 3.50557 11.3343 3.26688 11.1781 2.98085C11.1781 2.98085 11.1346 2.8796 11.0881 2.70485C10.8961 1.97735 11.5913 1.42085 12.3301 1.5641C13.0598 1.70585 13.8916 1.95185 14.5066 2.3531C15.8153 3.20585 15.5866 4.7441 14.8966 5.4686" fill="url(#paint76_radial_115_1520)"/>
</g>
<path d="M12.7812 5.98193C13.271 5.98193 13.685 6.31943 13.7975 6.77618C13.805 6.80659 13.8055 6.83832 13.7989 6.86895C13.7923 6.89958 13.7788 6.9283 13.7594 6.9529C13.74 6.97751 13.7153 6.99736 13.687 7.01092C13.6588 7.02449 13.6278 7.03142 13.5965 7.03118H11.924C11.8986 7.03137 11.8735 7.02596 11.8505 7.01534C11.8275 7.00472 11.8071 6.98915 11.7907 6.96974C11.7744 6.95033 11.7626 6.92756 11.756 6.90305C11.7495 6.87854 11.7485 6.85289 11.753 6.82793C11.8002 6.58979 11.9284 6.37534 12.1159 6.2211C12.3033 6.06685 12.5385 5.98234 12.7812 5.98193Z" fill="white"/>
<path d="M12.626 6.18506C12.7289 6.18523 12.8304 6.20911 12.9225 6.25484C13.0147 6.30057 13.0951 6.36692 13.1575 6.44874C13.2198 6.53056 13.2625 6.62565 13.2822 6.72664C13.3019 6.82763 13.2981 6.9318 13.271 7.03106H11.978C11.9513 6.93158 11.9479 6.8273 11.9679 6.72628C11.988 6.62526 12.031 6.53019 12.0936 6.44843C12.1562 6.36667 12.2368 6.30039 12.3291 6.25473C12.4214 6.20906 12.523 6.18522 12.626 6.18506Z" fill="url(#paint77_radial_115_1520)"/>
<path d="M12.2432 6.85494C12.2432 6.64194 12.4135 6.47169 12.6265 6.47169C12.6924 6.47131 12.7574 6.488 12.815 6.52012C12.8726 6.55224 12.9209 6.59871 12.9552 6.65501C12.9895 6.71131 13.0087 6.77554 13.0109 6.84145C13.0131 6.90736 12.9983 6.97272 12.9677 7.03119H12.289C12.2585 6.97752 12.2429 6.91665 12.244 6.85494" fill="black"/>
<g filter="url(#filter24_f_115_1520)">
<path d="M12.5777 6.32767C12.625 6.39067 12.5252 6.46866 12.4127 6.55266C12.2987 6.63816 12.2147 6.69742 12.1667 6.63367C12.1195 6.56992 12.1727 6.44991 12.286 6.36516C12.3985 6.28041 12.5297 6.26317 12.5777 6.32767Z" fill="#C7A7A3"/>
<path d="M12.5777 6.32767C12.625 6.39067 12.5252 6.46866 12.4127 6.55266C12.2987 6.63816 12.2147 6.69742 12.1667 6.63367C12.1195 6.56992 12.1727 6.44991 12.286 6.36516C12.3985 6.28041 12.5297 6.26317 12.5777 6.32767Z" fill="url(#paint78_radial_115_1520)"/>
</g>
<g filter="url(#filter25_f_115_1520)">
<path d="M13.2218 6.76717C13.2021 6.63608 13.1414 6.51456 13.0486 6.41992L12.8536 6.63367L12.9413 6.80467L13.2218 6.76717Z" fill="url(#paint79_linear_115_1520)"/>
</g>
<path d="M9.19475 5.98193C8.705 5.98193 8.291 6.31943 8.1785 6.77618C8.1455 6.90668 8.246 7.03118 8.3795 7.03118H10.0527C10.078 7.03126 10.1031 7.02577 10.126 7.0151C10.1489 7.00443 10.1693 6.98885 10.1855 6.96945C10.2017 6.95006 10.2135 6.92732 10.22 6.90287C10.2265 6.87841 10.2275 6.85283 10.223 6.82793C10.1759 6.58991 10.0477 6.37557 9.86042 6.22134C9.6731 6.0671 9.43739 5.98251 9.19475 5.98193Z" fill="white"/>
<path d="M9.35032 6.18506C9.24743 6.18523 9.14596 6.20911 9.05379 6.25484C8.96163 6.30057 8.88123 6.36692 8.81885 6.44874C8.75647 6.53056 8.71378 6.62565 8.69409 6.72664C8.6744 6.82763 8.67824 6.9318 8.70532 7.03106H9.99832C10.0135 6.9735 10.0218 6.91433 10.0231 6.85481C10.0215 6.67722 9.94999 6.5074 9.82405 6.38218C9.69812 6.25695 9.52791 6.18639 9.35032 6.18581" fill="url(#paint80_radial_115_1520)"/>
<path d="M9.73325 6.85494C9.73335 6.80464 9.72353 6.75482 9.70435 6.70833C9.68517 6.66184 9.65701 6.61958 9.62148 6.58398C9.58595 6.54838 9.54375 6.52014 9.4973 6.50087C9.45084 6.4816 9.40104 6.47169 9.35075 6.47169C9.2848 6.47131 9.21987 6.488 9.16228 6.52012C9.10468 6.55224 9.05636 6.59871 9.02202 6.65501C8.98768 6.71131 8.96848 6.77554 8.96629 6.84145C8.96409 6.90736 8.97898 6.97272 9.0095 7.03119H9.6875C9.717 6.97709 9.73271 6.91655 9.73325 6.85494Z" fill="black"/>
<g filter="url(#filter26_f_115_1520)">
<path d="M9.962 6.77583C9.962 6.55983 9.78575 6.41583 9.7385 6.37158L9.52175 6.58158L9.65525 6.85158L9.962 6.77583Z" fill="url(#paint81_linear_115_1520)"/>
</g>
<g filter="url(#filter27_f_115_1520)">
<path d="M9.21733 6.60173C9.36008 6.5261 9.44483 6.40634 9.40663 6.33423C9.36843 6.26213 9.22174 6.26498 9.07899 6.34061C8.93624 6.41623 8.85149 6.53599 8.88969 6.6081C8.92789 6.6802 9.07458 6.67735 9.21733 6.60173Z" fill="#C7A7A3" fill-opacity="0.9"/>
<path d="M9.21733 6.60173C9.36008 6.5261 9.44483 6.40634 9.40663 6.33423C9.36843 6.26213 9.22174 6.26498 9.07899 6.34061C8.93624 6.41623 8.85149 6.53599 8.88969 6.6081C8.92789 6.6802 9.07458 6.67735 9.21733 6.60173Z" fill="url(#paint82_radial_115_1520)"/>
</g>
<path d="M14.6798 8.23628C14.7298 7.43828 14.776 6.64029 14.8185 5.84229C15.1094 5.89419 15.3712 6.05095 15.5543 6.2829C15.7373 6.51485 15.829 6.80588 15.8119 7.10088C15.7948 7.39588 15.6701 7.67437 15.4615 7.88362C15.2528 8.09286 14.9747 8.21834 14.6798 8.23628Z" fill="url(#paint83_linear_115_1520)"/>
<path d="M14.6798 8.23628C14.7298 7.43828 14.776 6.64029 14.8185 5.84229C15.1094 5.89419 15.3712 6.05095 15.5543 6.2829C15.7373 6.51485 15.829 6.80588 15.8119 7.10088C15.7948 7.39588 15.6701 7.67437 15.4615 7.88362C15.2528 8.09286 14.9747 8.21834 14.6798 8.23628Z" fill="url(#paint84_radial_115_1520)"/>
<path d="M14.6798 8.23628C14.7298 7.43828 14.776 6.64029 14.8185 5.84229C15.1094 5.89419 15.3712 6.05095 15.5543 6.2829C15.7373 6.51485 15.829 6.80588 15.8119 7.10088C15.7948 7.39588 15.6701 7.67437 15.4615 7.88362C15.2528 8.09286 14.9747 8.21834 14.6798 8.23628Z" fill="url(#paint85_radial_115_1520)"/>
<path d="M14.6798 8.23628C14.7298 7.43828 14.776 6.64029 14.8185 5.84229C15.1094 5.89419 15.3712 6.05095 15.5543 6.2829C15.7373 6.51485 15.829 6.80588 15.8119 7.10088C15.7948 7.39588 15.6701 7.67437 15.4615 7.88362C15.2528 8.09286 14.9747 8.21834 14.6798 8.23628Z" fill="url(#paint86_radial_115_1520)"/>
<path d="M7.205 5.83643C6.91668 5.8774 6.65268 6.02058 6.46106 6.23986C6.26944 6.45915 6.16296 6.73997 6.161 7.03118C6.161 7.67618 6.66575 8.20193 7.301 8.23643C7.25258 7.43717 7.22057 6.637 7.205 5.83643Z" fill="url(#paint87_linear_115_1520)"/>
<path d="M7.205 5.83643C6.91668 5.8774 6.65268 6.02058 6.46106 6.23986C6.26944 6.45915 6.16296 6.73997 6.161 7.03118C6.161 7.67618 6.66575 8.20193 7.301 8.23643C7.25258 7.43717 7.22057 6.637 7.205 5.83643Z" fill="url(#paint88_radial_115_1520)"/>
<g filter="url(#filter28_f_115_1520)">
<path d="M7.17425 6.33105C7.01022 6.36808 6.86442 6.46158 6.76234 6.59521C6.66026 6.72884 6.6084 6.89409 6.61581 7.06208C6.62323 7.23008 6.68946 7.39012 6.80291 7.51423C6.91637 7.63834 7.06984 7.71863 7.2365 7.74105C7.21008 7.27132 7.18933 6.80129 7.17425 6.33105Z" fill="url(#paint89_radial_115_1520)"/>
</g>
<g filter="url(#filter29_f_115_1520)">
<path d="M14.7425 7.75245C14.7715 7.27745 14.799 6.8017 14.825 6.3252C15.0048 6.34848 15.1692 6.43905 15.2849 6.57867C15.4007 6.71828 15.4592 6.89657 15.4487 7.07761C15.4383 7.25866 15.3596 7.42902 15.2286 7.55437C15.0975 7.67973 14.9238 7.75002 14.7425 7.75245Z" fill="url(#paint90_linear_115_1520)"/>
</g>
<g filter="url(#filter30_f_115_1520)">
<path d="M8.4571 5.12402C8.6506 4.98527 9.1306 4.74227 9.6991 4.83827" stroke="#353535" stroke-width="0.1875" stroke-linecap="round"/>
</g>
<g filter="url(#filter31_f_115_1520)">
<path d="M13.6583 5.08931C13.4656 4.95056 12.9856 4.70756 12.4171 4.80281" stroke="#353535" stroke-width="0.1875" stroke-linecap="round"/>
</g>
<g filter="url(#filter32_ii_115_1520)">
<path d="M14.6258 5.37598H12.0233C11.7983 5.37598 11.5883 5.48098 11.4458 5.65348C11.4001 5.71069 11.3418 5.75665 11.2755 5.78785C11.2092 5.81905 11.1366 5.83466 11.0633 5.83348C10.9901 5.83466 10.9175 5.81905 10.8512 5.78785C10.7849 5.75665 10.7266 5.71069 10.6809 5.65348C10.5384 5.48098 10.3283 5.37598 10.1033 5.37598H7.49335C7.35085 5.37598 7.23835 5.48848 7.23835 5.63098V5.79598C7.23835 5.87848 7.27585 5.94598 7.33585 5.99098C7.36585 6.01348 7.38835 6.05098 7.38835 6.08848V6.91348C7.38835 7.70098 8.02585 8.34598 8.82085 8.34598H9.35335C10.1408 8.34598 10.7858 7.70848 10.7858 6.91348V6.45598C10.7933 6.30598 10.9133 6.19348 11.0633 6.19348C11.2133 6.19348 11.3334 6.31348 11.3408 6.46348V6.91348C11.3408 7.70098 11.9784 8.34598 12.7733 8.34598H13.3058C14.0933 8.34598 14.7383 7.70848 14.7383 6.91348V6.08098C14.7383 6.04348 14.7534 6.00598 14.7833 5.98348C14.8434 5.93848 14.8808 5.86348 14.8808 5.78848V5.63098C14.8808 5.48848 14.7683 5.37598 14.6258 5.37598ZM10.5308 6.83848C10.5308 7.52098 9.97585 8.07598 9.29335 8.07598H8.88085C8.19835 8.07598 7.64335 7.52098 7.64335 6.83848V6.29848C7.64335 5.93098 7.93585 5.63848 8.30335 5.63848H9.86335C10.2308 5.63848 10.5308 5.93098 10.5308 6.29848V6.83848ZM14.4908 6.83848C14.4908 7.52098 13.9358 8.07598 13.2533 8.07598H12.8408C12.1583 8.07598 11.6034 7.52098 11.6034 6.83848V6.29848C11.6034 5.93098 11.8958 5.63848 12.2633 5.63848H13.8308C14.1983 5.63848 14.4908 5.93098 14.4908 6.29848V6.83848Z" fill="url(#paint91_linear_115_1520)"/>
<path d="M14.6258 5.37598H12.0233C11.7983 5.37598 11.5883 5.48098 11.4458 5.65348C11.4001 5.71069 11.3418 5.75665 11.2755 5.78785C11.2092 5.81905 11.1366 5.83466 11.0633 5.83348C10.9901 5.83466 10.9175 5.81905 10.8512 5.78785C10.7849 5.75665 10.7266 5.71069 10.6809 5.65348C10.5384 5.48098 10.3283 5.37598 10.1033 5.37598H7.49335C7.35085 5.37598 7.23835 5.48848 7.23835 5.63098V5.79598C7.23835 5.87848 7.27585 5.94598 7.33585 5.99098C7.36585 6.01348 7.38835 6.05098 7.38835 6.08848V6.91348C7.38835 7.70098 8.02585 8.34598 8.82085 8.34598H9.35335C10.1408 8.34598 10.7858 7.70848 10.7858 6.91348V6.45598C10.7933 6.30598 10.9133 6.19348 11.0633 6.19348C11.2133 6.19348 11.3334 6.31348 11.3408 6.46348V6.91348C11.3408 7.70098 11.9784 8.34598 12.7733 8.34598H13.3058C14.0933 8.34598 14.7383 7.70848 14.7383 6.91348V6.08098C14.7383 6.04348 14.7534 6.00598 14.7833 5.98348C14.8434 5.93848 14.8808 5.86348 14.8808 5.78848V5.63098C14.8808 5.48848 14.7683 5.37598 14.6258 5.37598ZM10.5308 6.83848C10.5308 7.52098 9.97585 8.07598 9.29335 8.07598H8.88085C8.19835 8.07598 7.64335 7.52098 7.64335 6.83848V6.29848C7.64335 5.93098 7.93585 5.63848 8.30335 5.63848H9.86335C10.2308 5.63848 10.5308 5.93098 10.5308 6.29848V6.83848ZM14.4908 6.83848C14.4908 7.52098 13.9358 8.07598 13.2533 8.07598H12.8408C12.1583 8.07598 11.6034 7.52098 11.6034 6.83848V6.29848C11.6034 5.93098 11.8958 5.63848 12.2633 5.63848H13.8308C14.1983 5.63848 14.4908 5.93098 14.4908 6.29848V6.83848Z" fill="url(#paint92_radial_115_1520)"/>
</g>
<defs>
<filter id="filter0_i_115_1520" x="0.502998" y="2.0083" width="20.9852" height="15.8182" filterUnits="userSpaceOnUse" color-interpolation-filters="sRGB">
<feFlood flood-opacity="0" result="BackgroundImageFix"/>
<feBlend mode="normal" in="SourceGraphic" in2="BackgroundImageFix" result="shape"/>
<feColorMatrix in="SourceAlpha" type="matrix" values="0 0 0 0 0 0 0 0 0 0 0 0 0 0 0 0 0 0 127 0" result="hardAlpha"/>
<feOffset dy="0.075"/>
<feGaussianBlur stdDeviation="0.075"/>
<feComposite in2="hardAlpha" operator="arithmetic" k2="-1" k3="1"/>
<feColorMatrix type="matrix" values="0 0 0 0 0.81585 0 0 0 0 0.641744 0 0 0 0 0.41905 0 0 0 1 0"/>
<feBlend mode="normal" in2="shape" result="effect1_innerShadow_115_1520"/>
</filter>
<filter id="filter1_f_115_1520" x="1.00175" y="1.89141" width="20.5582" height="15.5888" filterUnits="userSpaceOnUse" color-interpolation-filters="sRGB">
<feFlood flood-opacity="0" result="BackgroundImageFix"/>
<feBlend mode="normal" in="SourceGraphic" in2="BackgroundImageFix" result="shape"/>
<feGaussianBlur stdDeviation="0.15" result="effect1_foregroundBlur_115_1520"/>
</filter>
<filter id="filter2_i_115_1520" x="0.502998" y="2.02402" width="20.9325" height="15.7201" filterUnits="userSpaceOnUse" color-interpolation-filters="sRGB">
<feFlood flood-opacity="0" result="BackgroundImageFix"/>
<feBlend mode="normal" in="SourceGraphic" in2="BackgroundImageFix" result="shape"/>
<feColorMatrix in="SourceAlpha" type="matrix" values="0 0 0 0 0 0 0 0 0 0 0 0 0 0 0 0 0 0 127 0" result="hardAlpha"/>
<feOffset dy="-0.225"/>
<feGaussianBlur stdDeviation="0.15"/>
<feComposite in2="hardAlpha" operator="arithmetic" k2="-1" k3="1"/>
<feColorMatrix type="matrix" values="0 0 0 0 0.85098 0 0 0 0 0.482353 0 0 0 0 0.647059 0 0 0 1 0"/>
<feBlend mode="normal" in2="shape" result="effect1_innerShadow_115_1520"/>
</filter>
<filter id="filter3_i_115_1520" x="12.5401" y="10.9782" width="2.0976" height="10.5301" filterUnits="userSpaceOnUse" color-interpolation-filters="sRGB">
<feFlood flood-opacity="0" result="BackgroundImageFix"/>
<feBlend mode="normal" in="SourceGraphic" in2="BackgroundImageFix" result="shape"/>
<feColorMatrix in="SourceAlpha" type="matrix" values="0 0 0 0 0 0 0 0 0 0 0 0 0 0 0 0 0 0 127 0" result="hardAlpha"/>
<feOffset dy="-0.075"/>
<feGaussianBlur stdDeviation="0.09375"/>
<feComposite in2="hardAlpha" operator="arithmetic" k2="-1" k3="1"/>
<feColorMatrix type="matrix" values="0 0 0 0 0.380392 0 0 0 0 0.164706 0 0 0 0 0.203922 0 0 0 1 0"/>
<feBlend mode="normal" in2="shape" result="effect1_innerShadow_115_1520"/>
</filter>
<filter id="filter4_i_115_1520" x="7.3604" y="10.9782" width="2.0976" height="10.5301" filterUnits="userSpaceOnUse" color-interpolation-filters="sRGB">
<feFlood flood-opacity="0" result="BackgroundImageFix"/>
<feBlend mode="normal" in="SourceGraphic" in2="BackgroundImageFix" result="shape"/>
<feColorMatrix in="SourceAlpha" type="matrix" values="0 0 0 0 0 0 0 0 0 0 0 0 0 0 0 0 0 0 127 0" result="hardAlpha"/>
<feOffset dy="-0.075"/>
<feGaussianBlur stdDeviation="0.09375"/>
<feComposite in2="hardAlpha" operator="arithmetic" k2="-1" k3="1"/>
<feColorMatrix type="matrix" values="0 0 0 0 0.380392 0 0 0 0 0.164706 0 0 0 0 0.203922 0 0 0 1 0"/>
<feBlend mode="normal" in2="shape" result="effect1_innerShadow_115_1520"/>
</filter>
<filter id="filter5_i_115_1520" x="14.711" y="16.3398" width="1.575" height="2.54229" filterUnits="userSpaceOnUse" color-interpolation-filters="sRGB">
<feFlood flood-opacity="0" result="BackgroundImageFix"/>
<feBlend mode="normal" in="SourceGraphic" in2="BackgroundImageFix" result="shape"/>
<feColorMatrix in="SourceAlpha" type="matrix" values="0 0 0 0 0 0 0 0 0 0 0 0 0 0 0 0 0 0 127 0" result="hardAlpha"/>
<feOffset dx="-0.075" dy="0.075"/>
<feGaussianBlur stdDeviation="0.075"/>
<feComposite in2="hardAlpha" operator="arithmetic" k2="-1" k3="1"/>
<feColorMatrix type="matrix" values="0 0 0 0 0.968627 0 0 0 0 0.803922 0 0 0 0 0.713726 0 0 0 1 0"/>
<feBlend mode="normal" in2="shape" result="effect1_innerShadow_115_1520"/>
</filter>
<filter id="filter6_i_115_1520" x="5.71296" y="16.334" width="1.575" height="2.46729" filterUnits="userSpaceOnUse" color-interpolation-filters="sRGB">
<feFlood flood-opacity="0" result="BackgroundImageFix"/>
<feBlend mode="normal" in="SourceGraphic" in2="BackgroundImageFix" result="shape"/>
<feColorMatrix in="SourceAlpha" type="matrix" values="0 0 0 0 0 0 0 0 0 0 0 0 0 0 0 0 0 0 127 0" result="hardAlpha"/>
<feOffset dx="0.075"/>
<feGaussianBlur stdDeviation="0.09375"/>
<feComposite in2="hardAlpha" operator="arithmetic" k2="-1" k3="1"/>
<feColorMatrix type="matrix" values="0 0 0 0 0.886275 0 0 0 0 0.670588 0 0 0 0 0.588235 0 0 0 1 0"/>
<feBlend mode="normal" in2="shape" result="effect1_innerShadow_115_1520"/>
</filter>
<filter id="filter7_i_115_1520" x="5.71296" y="17.4658" width="3.59534" height="4.04346" filterUnits="userSpaceOnUse" color-interpolation-filters="sRGB">
<feFlood flood-opacity="0" result="BackgroundImageFix"/>
<feBlend mode="normal" in="SourceGraphic" in2="BackgroundImageFix" result="shape"/>
<feColorMatrix in="SourceAlpha" type="matrix" values="0 0 0 0 0 0 0 0 0 0 0 0 0 0 0 0 0 0 127 0" result="hardAlpha"/>
<feOffset dx="0.3"/>
<feGaussianBlur stdDeviation="0.1875"/>
<feComposite in2="hardAlpha" operator="arithmetic" k2="-1" k3="1"/>
<feColorMatrix type="matrix" values="0 0 0 0 0.882353 0 0 0 0 0.670588 0 0 0 0 0.603922 0 0 0 1 0"/>
<feBlend mode="normal" in2="shape" result="effect1_innerShadow_115_1520"/>
</filter>
<filter id="filter8_ii_115_1520" x="12.8403" y="17.3158" width="3.59536" height="4.19346" filterUnits="userSpaceOnUse" color-interpolation-filters="sRGB">
<feFlood flood-opacity="0" result="BackgroundImageFix"/>
<feBlend mode="normal" in="SourceGraphic" in2="BackgroundImageFix" result="shape"/>
<feColorMatrix in="SourceAlpha" type="matrix" values="0 0 0 0 0 0 0 0 0 0 0 0 0 0 0 0 0 0 127 0" result="hardAlpha"/>
<feOffset dx="0.15" dy="-0.15"/>
<feGaussianBlur stdDeviation="0.1875"/>
<feComposite in2="hardAlpha" operator="arithmetic" k2="-1" k3="1"/>
<feColorMatrix type="matrix" values="0 0 0 0 0.74902 0 0 0 0 0.490196 0 0 0 0 0.478431 0 0 0 1 0"/>
<feBlend mode="normal" in2="shape" result="effect1_innerShadow_115_1520"/>
<feColorMatrix in="SourceAlpha" type="matrix" values="0 0 0 0 0 0 0 0 0 0 0 0 0 0 0 0 0 0 127 0" result="hardAlpha"/>
<feOffset dx="-0.15"/>
<feGaussianBlur stdDeviation="0.15"/>
<feComposite in2="hardAlpha" operator="arithmetic" k2="-1" k3="1"/>
<feColorMatrix type="matrix" values="0 0 0 0 0.956863 0 0 0 0 0.796078 0 0 0 0 0.721569 0 0 0 1 0"/>
<feBlend mode="normal" in2="effect1_innerShadow_115_1520" result="effect2_innerShadow_115_1520"/>
</filter>
<filter id="filter9_f_115_1520" x="13.1551" y="18.425" width="1.6665" height="0.225195" filterUnits="userSpaceOnUse" color-interpolation-filters="sRGB">
<feFlood flood-opacity="0" result="BackgroundImageFix"/>
<feBlend mode="normal" in="SourceGraphic" in2="BackgroundImageFix" result="shape"/>
<feGaussianBlur stdDeviation="0.0375" result="effect1_foregroundBlur_115_1520"/>
</filter>
<filter id="filter10_f_115_1520" x="7.14538" y="18.425" width="1.66575" height="0.225195" filterUnits="userSpaceOnUse" color-interpolation-filters="sRGB">
<feFlood flood-opacity="0" result="BackgroundImageFix"/>
<feBlend mode="normal" in="SourceGraphic" in2="BackgroundImageFix" result="shape"/>
<feGaussianBlur stdDeviation="0.0375" result="effect1_foregroundBlur_115_1520"/>
</filter>
<filter id="filter11_f_115_1520" x="13.1551" y="19.3747" width="1.6665" height="0.225195" filterUnits="userSpaceOnUse" color-interpolation-filters="sRGB">
<feFlood flood-opacity="0" result="BackgroundImageFix"/>
<feBlend mode="normal" in="SourceGraphic" in2="BackgroundImageFix" result="shape"/>
<feGaussianBlur stdDeviation="0.0375" result="effect1_foregroundBlur_115_1520"/>
</filter>
<filter id="filter12_f_115_1520" x="7.14538" y="19.3747" width="1.66575" height="0.225195" filterUnits="userSpaceOnUse" color-interpolation-filters="sRGB">
<feFlood flood-opacity="0" result="BackgroundImageFix"/>
<feBlend mode="normal" in="SourceGraphic" in2="BackgroundImageFix" result="shape"/>
<feGaussianBlur stdDeviation="0.0375" result="effect1_foregroundBlur_115_1520"/>
</filter>
<filter id="filter13_f_115_1520" x="13.1551" y="20.3239" width="1.6665" height="0.225195" filterUnits="userSpaceOnUse" color-interpolation-filters="sRGB">
<feFlood flood-opacity="0" result="BackgroundImageFix"/>
<feBlend mode="normal" in="SourceGraphic" in2="BackgroundImageFix" result="shape"/>
<feGaussianBlur stdDeviation="0.0375" result="effect1_foregroundBlur_115_1520"/>
</filter>
<filter id="filter14_f_115_1520" x="7.14538" y="20.3239" width="1.66575" height="0.225195" filterUnits="userSpaceOnUse" color-interpolation-filters="sRGB">
<feFlood flood-opacity="0" result="BackgroundImageFix"/>
<feBlend mode="normal" in="SourceGraphic" in2="BackgroundImageFix" result="shape"/>
<feGaussianBlur stdDeviation="0.0375" result="effect1_foregroundBlur_115_1520"/>
</filter>
<filter id="filter15_ii_115_1520" x="7.1915" y="2.60205" width="8.415" height="9.40635" filterUnits="userSpaceOnUse" color-interpolation-filters="sRGB">
<feFlood flood-opacity="0" result="BackgroundImageFix"/>
<feBlend mode="normal" in="SourceGraphic" in2="BackgroundImageFix" result="shape"/>
<feColorMatrix in="SourceAlpha" type="matrix" values="0 0 0 0 0 0 0 0 0 0 0 0 0 0 0 0 0 0 127 0" result="hardAlpha"/>
<feOffset dx="0.75"/>
<feGaussianBlur stdDeviation="0.525"/>
<feComposite in2="hardAlpha" operator="arithmetic" k2="-1" k3="1"/>
<feColorMatrix type="matrix" values="0 0 0 0 0.913725 0 0 0 0 0.686275 0 0 0 0 0.592157 0 0 0 1 0"/>
<feBlend mode="normal" in2="shape" result="effect1_innerShadow_115_1520"/>
<feColorMatrix in="SourceAlpha" type="matrix" values="0 0 0 0 0 0 0 0 0 0 0 0 0 0 0 0 0 0 127 0" result="hardAlpha"/>
<feOffset dy="0.15"/>
<feGaussianBlur stdDeviation="0.28125"/>
<feComposite in2="hardAlpha" operator="arithmetic" k2="-1" k3="1"/>
<feColorMatrix type="matrix" values="0 0 0 0 0.780392 0 0 0 0 0.568627 0 0 0 0 0.486275 0 0 0 1 0"/>
<feBlend mode="normal" in2="effect1_innerShadow_115_1520" result="effect2_innerShadow_115_1520"/>
</filter>
<filter id="filter16_f_115_1520" x="9.47664" y="5.8584" width="2.81017" height="3.67529" filterUnits="userSpaceOnUse" color-interpolation-filters="sRGB">
<feFlood flood-opacity="0" result="BackgroundImageFix"/>
<feBlend mode="normal" in="SourceGraphic" in2="BackgroundImageFix" result="shape"/>
<feGaussianBlur stdDeviation="0.375" result="effect1_foregroundBlur_115_1520"/>
</filter>
<filter id="filter17_f_115_1520" x="10.1342" y="6.31533" width="1.70829" height="2.47529" filterUnits="userSpaceOnUse" color-interpolation-filters="sRGB">
<feFlood flood-opacity="0" result="BackgroundImageFix"/>
<feBlend mode="normal" in="SourceGraphic" in2="BackgroundImageFix" result="shape"/>
<feGaussianBlur stdDeviation="0.075" result="effect1_foregroundBlur_115_1520"/>
</filter>
<filter id="filter18_f_115_1520" x="9.5944" y="8.95625" width="2.78811" height="1.17881" filterUnits="userSpaceOnUse" color-interpolation-filters="sRGB">
<feFlood flood-opacity="0" result="BackgroundImageFix"/>
<feBlend mode="normal" in="SourceGraphic" in2="BackgroundImageFix" result="shape"/>
<feGaussianBlur stdDeviation="0.0375" result="effect1_foregroundBlur_115_1520"/>
</filter>
<filter id="filter19_ii_115_1520" x="6.16132" y="0.21875" width="9.65412" height="6.26758" filterUnits="userSpaceOnUse" color-interpolation-filters="sRGB">
<feFlood flood-opacity="0" result="BackgroundImageFix"/>
<feBlend mode="normal" in="SourceGraphic" in2="BackgroundImageFix" result="shape"/>
<feColorMatrix in="SourceAlpha" type="matrix" values="0 0 0 0 0 0 0 0 0 0 0 0 0 0 0 0 0 0 127 0" result="hardAlpha"/>
<feOffset dy="-0.375"/>
<feGaussianBlur stdDeviation="0.46875"/>
<feComposite in2="hardAlpha" operator="arithmetic" k2="-1" k3="1"/>
<feColorMatrix type="matrix" values="0 0 0 0 0.137255 0 0 0 0 0.0901961 0 0 0 0 0.145098 0 0 0 1 0"/>
<feBlend mode="normal" in2="shape" result="effect1_innerShadow_115_1520"/>
<feColorMatrix in="SourceAlpha" type="matrix" values="0 0 0 0 0 0 0 0 0 0 0 0 0 0 0 0 0 0 127 0" result="hardAlpha"/>
<feOffset dy="-0.15"/>
<feGaussianBlur stdDeviation="0.15"/>
<feComposite in2="hardAlpha" operator="arithmetic" k2="-1" k3="1"/>
<feColorMatrix type="matrix" values="0 0 0 0 0.0784314 0 0 0 0 0.0352941 0 0 0 0 0.0470588 0 0 0 1 0"/>
<feBlend mode="normal" in2="effect1_innerShadow_115_1520" result="effect2_innerShadow_115_1520"/>
</filter>
<filter id="filter20_i_115_1520" x="12.1798" y="4.46768" width="1.754" height="0.892676" filterUnits="userSpaceOnUse" color-interpolation-filters="sRGB">
<feFlood flood-opacity="0" result="BackgroundImageFix"/>
<feBlend mode="normal" in="SourceGraphic" in2="BackgroundImageFix" result="shape"/>
<feColorMatrix in="SourceAlpha" type="matrix" values="0 0 0 0 0 0 0 0 0 0 0 0 0 0 0 0 0 0 127 0" result="hardAlpha"/>
<feOffset dx="0.075" dy="-0.15"/>
<feGaussianBlur stdDeviation="0.09375"/>
<feComposite in2="hardAlpha" operator="arithmetic" k2="-1" k3="1"/>
<feColorMatrix type="matrix" values="0 0 0 0 0.0588235 0 0 0 0 0.054902 0 0 0 0 0.0588235 0 0 0 1 0"/>
<feBlend mode="normal" in2="shape" result="effect1_innerShadow_115_1520"/>
</filter>
<filter id="filter21_i_115_1520" x="8.23727" y="4.47842" width="1.75475" height="0.882422" filterUnits="userSpaceOnUse" color-interpolation-filters="sRGB">
<feFlood flood-opacity="0" result="BackgroundImageFix"/>
<feBlend mode="normal" in="SourceGraphic" in2="BackgroundImageFix" result="shape"/>
<feColorMatrix in="SourceAlpha" type="matrix" values="0 0 0 0 0 0 0 0 0 0 0 0 0 0 0 0 0 0 127 0" result="hardAlpha"/>
<feOffset dx="0.075" dy="-0.15"/>
<feGaussianBlur stdDeviation="0.09375"/>
<feComposite in2="hardAlpha" operator="arithmetic" k2="-1" k3="1"/>
<feColorMatrix type="matrix" values="0 0 0 0 0.0588235 0 0 0 0 0.054902 0 0 0 0 0.0588235 0 0 0 1 0"/>
<feBlend mode="normal" in2="shape" result="effect1_innerShadow_115_1520"/>
</filter>
<filter id="filter22_if_115_1520" x="6.42683" y="1.03613" width="5.05125" height="4.49414" filterUnits="userSpaceOnUse" color-interpolation-filters="sRGB">
<feFlood flood-opacity="0" result="BackgroundImageFix"/>
<feBlend mode="normal" in="SourceGraphic" in2="BackgroundImageFix" result="shape"/>
<feColorMatrix in="SourceAlpha" type="matrix" values="0 0 0 0 0 0 0 0 0 0 0 0 0 0 0 0 0 0 127 0" result="hardAlpha"/>
<feOffset dx="0.3" dy="0.15"/>
<feGaussianBlur stdDeviation="0.15"/>
<feComposite in2="hardAlpha" operator="arithmetic" k2="-1" k3="1"/>
<feColorMatrix type="matrix" values="0 0 0 0 0.286275 0 0 0 0 0.243137 0 0 0 0 0.227451 0 0 0 1 0"/>
<feBlend mode="normal" in2="shape" result="effect1_innerShadow_115_1520"/>
<feGaussianBlur stdDeviation="0.09375" result="effect2_foregroundBlur_115_1520"/>
</filter>
<filter id="filter23_f_115_1520" x="10.8682" y="1.354" width="4.77158" height="4.30225" filterUnits="userSpaceOnUse" color-interpolation-filters="sRGB">
<feFlood flood-opacity="0" result="BackgroundImageFix"/>
<feBlend mode="normal" in="SourceGraphic" in2="BackgroundImageFix" result="shape"/>
<feGaussianBlur stdDeviation="0.09375" result="effect1_foregroundBlur_115_1520"/>
</filter>
<filter id="filter24_f_115_1520" x="12.0745" y="6.21357" width="0.590248" height="0.52207" filterUnits="userSpaceOnUse" color-interpolation-filters="sRGB">
<feFlood flood-opacity="0" result="BackgroundImageFix"/>
<feBlend mode="normal" in="SourceGraphic" in2="BackgroundImageFix" result="shape"/>
<feGaussianBlur stdDeviation="0.0375" result="effect1_foregroundBlur_115_1520"/>
</filter>
<filter id="filter25_f_115_1520" x="12.7036" y="6.26992" width="0.66825" height="0.684766" filterUnits="userSpaceOnUse" color-interpolation-filters="sRGB">
<feFlood flood-opacity="0" result="BackgroundImageFix"/>
<feBlend mode="normal" in="SourceGraphic" in2="BackgroundImageFix" result="shape"/>
<feGaussianBlur stdDeviation="0.075" result="effect1_foregroundBlur_115_1520"/>
</filter>
<filter id="filter26_f_115_1520" x="9.37175" y="6.22158" width="0.74025" height="0.77998" filterUnits="userSpaceOnUse" color-interpolation-filters="sRGB">
<feFlood flood-opacity="0" result="BackgroundImageFix"/>
<feBlend mode="normal" in="SourceGraphic" in2="BackgroundImageFix" result="shape"/>
<feGaussianBlur stdDeviation="0.075" result="effect1_foregroundBlur_115_1520"/>
</filter>
<filter id="filter27_f_115_1520" x="8.80553" y="6.20674" width="0.685259" height="0.528418" filterUnits="userSpaceOnUse" color-interpolation-filters="sRGB">
<feFlood flood-opacity="0" result="BackgroundImageFix"/>
<feBlend mode="normal" in="SourceGraphic" in2="BackgroundImageFix" result="shape"/>
<feGaussianBlur stdDeviation="0.0375" result="effect1_foregroundBlur_115_1520"/>
</filter>
<filter id="filter28_f_115_1520" x="6.42762" y="6.14355" width="0.996382" height="1.78516" filterUnits="userSpaceOnUse" color-interpolation-filters="sRGB">
<feFlood flood-opacity="0" result="BackgroundImageFix"/>
<feBlend mode="normal" in="SourceGraphic" in2="BackgroundImageFix" result="shape"/>
<feGaussianBlur stdDeviation="0.09375" result="effect1_foregroundBlur_115_1520"/>
</filter>
<filter id="filter29_f_115_1520" x="14.3675" y="5.9502" width="1.45743" height="2.17725" filterUnits="userSpaceOnUse" color-interpolation-filters="sRGB">
<feFlood flood-opacity="0" result="BackgroundImageFix"/>
<feBlend mode="normal" in="SourceGraphic" in2="BackgroundImageFix" result="shape"/>
<feGaussianBlur stdDeviation="0.1875" result="effect1_foregroundBlur_115_1520"/>
</filter>
<filter id="filter30_f_115_1520" x="8.17584" y="4.53516" width="1.80452" height="0.870117" filterUnits="userSpaceOnUse" color-interpolation-filters="sRGB">
<feFlood flood-opacity="0" result="BackgroundImageFix"/>
<feBlend mode="normal" in="SourceGraphic" in2="BackgroundImageFix" result="shape"/>
<feGaussianBlur stdDeviation="0.09375" result="effect1_foregroundBlur_115_1520"/>
</filter>
<filter id="filter31_f_115_1520" x="12.1358" y="4.5" width="1.80377" height="0.870605" filterUnits="userSpaceOnUse" color-interpolation-filters="sRGB">
<feFlood flood-opacity="0" result="BackgroundImageFix"/>
<feBlend mode="normal" in="SourceGraphic" in2="BackgroundImageFix" result="shape"/>
<feGaussianBlur stdDeviation="0.09375" result="effect1_foregroundBlur_115_1520"/>
</filter>
<filter id="filter32_ii_115_1520" x="7.16335" y="5.30098" width="7.7175" height="3.12021" filterUnits="userSpaceOnUse" color-interpolation-filters="sRGB">
<feFlood flood-opacity="0" result="BackgroundImageFix"/>
<feBlend mode="normal" in="SourceGraphic" in2="BackgroundImageFix" result="shape"/>
<feColorMatrix in="SourceAlpha" type="matrix" values="0 0 0 0 0 0 0 0 0 0 0 0 0 0 0 0 0 0 127 0" result="hardAlpha"/>
<feOffset dx="-0.075" dy="0.075"/>
<feGaussianBlur stdDeviation="0.075"/>
<feComposite in2="hardAlpha" operator="arithmetic" k2="-1" k3="1"/>
<feColorMatrix type="matrix" values="0 0 0 0 0.381221 0 0 0 0 0.2699 0 0 0 0 0.482422 0 0 0 1 0"/>
<feBlend mode="normal" in2="shape" result="effect1_innerShadow_115_1520"/>
<feColorMatrix in="SourceAlpha" type="matrix" values="0 0 0 0 0 0 0 0 0 0 0 0 0 0 0 0 0 0 127 0" result="hardAlpha"/>
<feOffset dy="-0.075"/>
<feGaussianBlur stdDeviation="0.0375"/>
<feComposite in2="hardAlpha" operator="arithmetic" k2="-1" k3="1"/>
<feColorMatrix type="matrix" values="0 0 0 0 0.2 0 0 0 0 0.109804 0 0 0 0 0.211765 0 0 0 1 0"/>
<feBlend mode="normal" in2="effect1_innerShadow_115_1520" result="effect2_innerShadow_115_1520"/>
</filter>
<linearGradient id="paint0_linear_115_1520" x1="7.86425" y1="2.46505" x2="22.4457" y2="16.1421" gradientUnits="userSpaceOnUse">
<stop stop-color="#EFBE85"/>
<stop offset="0.568" stop-color="#E8AC81"/>
<stop offset="1" stop-color="#D6753D"/>
</linearGradient>
<linearGradient id="paint1_linear_115_1520" x1="21.5472" y1="8.98079" x2="5.84375" y2="8.98079" gradientUnits="userSpaceOnUse">
<stop stop-color="#509245"/>
<stop offset="1" stop-color="#44803D"/>
</linearGradient>
<radialGradient id="paint2_radial_115_1520" cx="0" cy="0" r="1" gradientUnits="userSpaceOnUse" gradientTransform="translate(3.82843 18.3094) rotate(-56.746) scale(13.6772 18.7189)">
<stop stop-color="#25585F"/>
<stop offset="1" stop-color="#25585F" stop-opacity="0"/>
</radialGradient>
<radialGradient id="paint3_radial_115_1520" cx="0" cy="0" r="1" gradientUnits="userSpaceOnUse" gradientTransform="translate(21.1722 18.1218) rotate(-125.417) scale(12.9416 12.8011)">
<stop stop-color="#358175"/>
<stop offset="1" stop-color="#358175" stop-opacity="0"/>
</radialGradient>
<linearGradient id="paint4_linear_115_1520" x1="9.0785" y1="1.67071" x2="22.4375" y2="17.2797" gradientUnits="userSpaceOnUse">
<stop stop-color="#FFD59C"/>
<stop offset="1" stop-color="#F69C5B"/>
</linearGradient>
<linearGradient id="paint5_linear_115_1520" x1="-4.6795" y1="18.239" x2="20.6795" y2="18.239" gradientUnits="userSpaceOnUse">
<stop stop-color="#D18F7B"/>
<stop offset="1" stop-color="#F1B58B"/>
</linearGradient>
<linearGradient id="paint6_linear_115_1520" x1="1.3205" y1="2.91127" x2="1.3205" y2="16.739" gradientUnits="userSpaceOnUse">
<stop stop-color="#D78248"/>
<stop offset="1" stop-color="#D78248" stop-opacity="0"/>
</linearGradient>
<radialGradient id="paint7_radial_115_1520" cx="0" cy="0" r="1" gradientUnits="userSpaceOnUse" gradientTransform="translate(0.502998 2.24902) rotate(90) scale(6.98354 0.46323)">
<stop offset="0.355" stop-color="#BC7B53"/>
<stop offset="1" stop-color="#BC7B53" stop-opacity="0"/>
</radialGradient>
<radialGradient id="paint8_radial_115_1520" cx="0" cy="0" r="1" gradientUnits="userSpaceOnUse" gradientTransform="translate(11 10.9735) rotate(90) scale(10.5352 4.66399)">
<stop stop-color="#61342D"/>
<stop offset="1" stop-color="#764747"/>
</radialGradient>
<radialGradient id="paint9_radial_115_1520" cx="0" cy="0" r="1" gradientUnits="userSpaceOnUse" gradientTransform="translate(15.992 14.3718) rotate(90) scale(6.28125 2.20312)">
<stop stop-color="#9A6D66"/>
<stop offset="1" stop-color="#9A6D66" stop-opacity="0"/>
</radialGradient>
<radialGradient id="paint10_radial_115_1520" cx="0" cy="0" r="1" gradientUnits="userSpaceOnUse" gradientTransform="translate(8.54 13.318) rotate(135) scale(1.62414 1.30926)">
<stop stop-color="#61332B"/>
<stop offset="1" stop-color="#61332B" stop-opacity="0"/>
</radialGradient>
<radialGradient id="paint11_radial_115_1520" cx="0" cy="0" r="1" gradientUnits="userSpaceOnUse" gradientTransform="translate(19.2459 20.1844) rotate(-90) scale(7.64062 2.88829)">
<stop stop-color="#7C5A5A"/>
<stop offset="1" stop-color="#735451"/>
</radialGradient>
<linearGradient id="paint12_linear_115_1520" x1="17.8809" y1="21.8494" x2="17.8809" y2="18.9867" gradientUnits="userSpaceOnUse">
<stop stop-color="#614451"/>
<stop offset="1" stop-color="#614451" stop-opacity="0"/>
</linearGradient>
<linearGradient id="paint13_linear_115_1520" x1="15.8049" y1="20.9577" x2="16.4147" y2="20.9464" gradientUnits="userSpaceOnUse">
<stop offset="0.254" stop-color="#4F2737"/>
<stop offset="1" stop-color="#4F2737" stop-opacity="0"/>
</linearGradient>
<linearGradient id="paint14_linear_115_1520" x1="4.3505" y1="20.1192" x2="6.14675" y2="20.1192" gradientUnits="userSpaceOnUse">
<stop stop-color="#623D44"/>
<stop offset="1" stop-color="#4F2E37"/>
</linearGradient>
<radialGradient id="paint15_radial_115_1520" cx="0" cy="0" r="1" gradientUnits="userSpaceOnUse" gradientTransform="translate(7.5935 21.3462) rotate(180) scale(5.19051 12.9605)">
<stop offset="0.576" stop-color="#5D3841" stop-opacity="0"/>
<stop offset="1" stop-color="#7F6260"/>
</radialGradient>
<radialGradient id="paint16_radial_115_1520" cx="0" cy="0" r="1" gradientUnits="userSpaceOnUse" gradientTransform="translate(10.391 14.231) scale(2.69531 8.84767)">
<stop stop-color="#ABA5A8"/>
<stop offset="1" stop-color="#544B50"/>
</radialGradient>
<linearGradient id="paint17_linear_115_1520" x1="12.5401" y1="12.7895" x2="14.6379" y2="12.7895" gradientUnits="userSpaceOnUse">
<stop stop-color="#613327"/>
<stop offset="0.371" stop-color="#764440"/>
</linearGradient>
<radialGradient id="paint18_radial_115_1520" cx="0" cy="0" r="1" gradientUnits="userSpaceOnUse" gradientTransform="translate(14.9229 13.5912) rotate(-115.221) scale(2.80535 1.6969)">
<stop stop-color="#90645E"/>
<stop offset="1" stop-color="#90645E" stop-opacity="0"/>
</radialGradient>
<radialGradient id="paint19_radial_115_1520" cx="0" cy="0" r="1" gradientUnits="userSpaceOnUse" gradientTransform="translate(13.7529 14.3483) rotate(-125.283) scale(1.22742 0.223545)">
<stop stop-color="#8A5D57"/>
<stop offset="1" stop-color="#8A5D57" stop-opacity="0"/>
</radialGradient>
<radialGradient id="paint20_radial_115_1520" cx="0" cy="0" r="1" gradientUnits="userSpaceOnUse" gradientTransform="translate(12.475 11.3597) rotate(69.677) scale(0.712305 1.33332)">
<stop offset="0.359" stop-color="#481E13"/>
<stop offset="1" stop-color="#4A1D14" stop-opacity="0"/>
</radialGradient>
<linearGradient id="paint21_linear_115_1520" x1="9.458" y1="12.7895" x2="7.36025" y2="12.7895" gradientUnits="userSpaceOnUse">
<stop stop-color="#744036"/>
<stop offset="0.639" stop-color="#72433E"/>
</linearGradient>
<radialGradient id="paint22_radial_115_1520" cx="0" cy="0" r="1" gradientUnits="userSpaceOnUse" gradientTransform="translate(9.137 14.2775) rotate(-88.8542) scale(2.34422 0.946929)">
<stop stop-color="#875955"/>
<stop offset="1" stop-color="#875955" stop-opacity="0"/>
</radialGradient>
<linearGradient id="paint23_linear_115_1520" x1="8.08175" y1="11.7117" x2="8.504" y2="11.876" gradientUnits="userSpaceOnUse">
<stop stop-color="#6F5048"/>
<stop offset="1" stop-color="#6F5048" stop-opacity="0"/>
</linearGradient>
<radialGradient id="paint24_radial_115_1520" cx="0" cy="0" r="1" gradientUnits="userSpaceOnUse" gradientTransform="translate(9.52325 11.36) rotate(115.115) scale(0.828309 1.55045)">
<stop offset="0.219" stop-color="#481E13"/>
<stop offset="1" stop-color="#4A1D14" stop-opacity="0"/>
</radialGradient>
<radialGradient id="paint25_radial_115_1520" cx="0" cy="0" r="1" gradientUnits="userSpaceOnUse" gradientTransform="translate(11.0046 11.9362) rotate(90) scale(2.10826 1.54222)">
<stop offset="0.298" stop-color="#A87366"/>
<stop offset="1" stop-color="#875841"/>
</radialGradient>
<radialGradient id="paint26_radial_115_1520" cx="0" cy="0" r="1" gradientUnits="userSpaceOnUse" gradientTransform="translate(15.9777 16.8363) rotate(136.93) scale(1.15904 1.6697)">
<stop offset="0.28" stop-color="#E9BDA6"/>
<stop offset="1" stop-color="#DDA88B"/>
</radialGradient>
<radialGradient id="paint27_radial_115_1520" cx="0" cy="0" r="1" gradientUnits="userSpaceOnUse" gradientTransform="translate(16.0842 16.6256) rotate(-40.3996) scale(0.609637 0.363152)">
<stop stop-color="#FCD2BC"/>
<stop offset="1" stop-color="#FCD2BC" stop-opacity="0"/>
</radialGradient>
<radialGradient id="paint28_radial_115_1520" cx="0" cy="0" r="1" gradientUnits="userSpaceOnUse" gradientTransform="translate(7.32096 17.018) rotate(-170.853) scale(1.40062 4.38862)">
<stop stop-color="#B88165"/>
<stop offset="1" stop-color="#CD9A86"/>
</radialGradient>
<linearGradient id="paint29_linear_115_1520" x1="15.383" y1="17.6059" x2="12.1017" y2="17.6059" gradientUnits="userSpaceOnUse">
<stop stop-color="#E9266F"/>
<stop offset="1" stop-color="#BF1B74"/>
</linearGradient>
<linearGradient id="paint30_linear_115_1520" x1="6.7355" y1="16.6924" x2="7.0565" y2="16.6924" gradientUnits="userSpaceOnUse">
<stop stop-color="#6D6670"/>
<stop offset="1" stop-color="#6D6670" stop-opacity="0"/>
</linearGradient>
<linearGradient id="paint31_linear_115_1520" x1="8.64696" y1="20.0203" x2="5.42121" y2="20.0203" gradientUnits="userSpaceOnUse">
<stop stop-color="#EAB9AD"/>
<stop offset="0.716" stop-color="#D4A093"/>
</linearGradient>
<radialGradient id="paint32_radial_115_1520" cx="0" cy="0" r="1" gradientUnits="userSpaceOnUse" gradientTransform="translate(8.14071 18.0321) rotate(180) scale(1.2539 0.494662)">
<stop stop-color="#F2C6BB"/>
<stop offset="1" stop-color="#F2C6BB" stop-opacity="0"/>
</radialGradient>
<radialGradient id="paint33_radial_115_1520" cx="0" cy="0" r="1" gradientUnits="userSpaceOnUse" gradientTransform="translate(8.15196 18.9928) rotate(180) scale(1.14844 0.453052)">
<stop stop-color="#F2C6BB"/>
<stop offset="1" stop-color="#F2C6BB" stop-opacity="0"/>
</radialGradient>
<radialGradient id="paint34_radial_115_1520" cx="0" cy="0" r="1" gradientUnits="userSpaceOnUse" gradientTransform="translate(8.18721 19.9543) rotate(180) scale(1.00781 0.397575)">
<stop stop-color="#F2C6BB"/>
<stop offset="1" stop-color="#F2C6BB" stop-opacity="0"/>
</radialGradient>
<radialGradient id="paint35_radial_115_1520" cx="0" cy="0" r="1" gradientUnits="userSpaceOnUse" gradientTransform="translate(8.23971 20.9736) rotate(180) scale(1.125 0.443805)">
<stop stop-color="#F2C6BB"/>
<stop offset="1" stop-color="#F2C6BB" stop-opacity="0"/>
</radialGradient>
<linearGradient id="paint36_linear_115_1520" x1="7.29696" y1="21.7108" x2="7.29696" y2="20.9023" gradientUnits="userSpaceOnUse">
<stop stop-color="#C38792"/>
<stop offset="1" stop-color="#C38792" stop-opacity="0"/>
</linearGradient>
<linearGradient id="paint37_linear_115_1520" x1="15.8514" y1="19.7158" x2="12.9902" y2="19.7158" gradientUnits="userSpaceOnUse">
<stop stop-color="#FFD7C3"/>
<stop offset="0.807" stop-color="#D19890"/>
</linearGradient>
<radialGradient id="paint38_radial_115_1520" cx="0" cy="0" r="1" gradientUnits="userSpaceOnUse" gradientTransform="translate(14.9372 18.0321) scale(1.27734 0.50391)">
<stop stop-color="#FFD6C4"/>
<stop offset="1" stop-color="#FFD6C4" stop-opacity="0"/>
</radialGradient>
<radialGradient id="paint39_radial_115_1520" cx="0" cy="0" r="1" gradientUnits="userSpaceOnUse" gradientTransform="translate(14.8907 18.9928) scale(1.21875 0.480795)">
<stop stop-color="#FFD6C4"/>
<stop offset="1" stop-color="#FFD6C4" stop-opacity="0"/>
</radialGradient>
<radialGradient id="paint40_radial_115_1520" cx="0" cy="0" r="1" gradientUnits="userSpaceOnUse" gradientTransform="translate(14.8202 19.9543) scale(1.17187 0.4623)">
<stop stop-color="#FFD6C4"/>
<stop offset="1" stop-color="#FFD6C4" stop-opacity="0"/>
</radialGradient>
<radialGradient id="paint41_radial_115_1520" cx="0" cy="0" r="1" gradientUnits="userSpaceOnUse" gradientTransform="translate(14.7144 20.9736) scale(1.07812 0.425317)">
<stop stop-color="#FFD6C4"/>
<stop offset="1" stop-color="#FFD6C4" stop-opacity="0"/>
</radialGradient>
<linearGradient id="paint42_linear_115_1520" x1="7.08575" y1="15.4735" x2="15.2405" y2="15.4735" gradientUnits="userSpaceOnUse">
<stop stop-color="#564567"/>
<stop offset="1" stop-color="#564567"/>
</linearGradient>
<linearGradient id="paint43_linear_115_1520" x1="11.3007" y1="14.7702" x2="11.3007" y2="15.6492" gradientUnits="userSpaceOnUse">
<stop stop-color="#DCD5E1"/>
<stop offset="1" stop-color="#B2ACB9"/>
</linearGradient>
<linearGradient id="paint44_linear_115_1520" x1="-nan" y1="-nan" x2="-nan" y2="-nan" gradientUnits="userSpaceOnUse">
<stop stop-color="#B6736C"/>
<stop offset="1" stop-color="#B6736C" stop-opacity="0"/>
</linearGradient>
<linearGradient id="paint45_linear_115_1520" x1="-nan" y1="-nan" x2="-nan" y2="-nan" gradientUnits="userSpaceOnUse">
<stop stop-color="#E4AF9D"/>
<stop offset="1" stop-color="#E4AF9D" stop-opacity="0"/>
</linearGradient>
<linearGradient id="paint46_linear_115_1520" x1="-nan" y1="-nan" x2="-nan" y2="-nan" gradientUnits="userSpaceOnUse">
<stop stop-color="#B6736C"/>
<stop offset="1" stop-color="#B6736C" stop-opacity="0"/>
</linearGradient>
<linearGradient id="paint47_linear_115_1520" x1="-nan" y1="-nan" x2="-nan" y2="-nan" gradientUnits="userSpaceOnUse">
<stop stop-color="#E4AF9D"/>
<stop offset="1" stop-color="#E4AF9D" stop-opacity="0"/>
</linearGradient>
<linearGradient id="paint48_linear_115_1520" x1="-nan" y1="-nan" x2="-nan" y2="-nan" gradientUnits="userSpaceOnUse">
<stop stop-color="#B6736C"/>
<stop offset="1" stop-color="#B6736C" stop-opacity="0"/>
</linearGradient>
<linearGradient id="paint49_linear_115_1520" x1="-nan" y1="-nan" x2="-nan" y2="-nan" gradientUnits="userSpaceOnUse">
<stop stop-color="#E4AF9D"/>
<stop offset="1" stop-color="#E4AF9D" stop-opacity="0"/>
</linearGradient>
<radialGradient id="paint50_radial_115_1520" cx="0" cy="0" r="1" gradientUnits="userSpaceOnUse" gradientTransform="translate(14.5528 7.93595) rotate(69.657) scale(1.6154 1.91898)">
<stop offset="0.215" stop-color="#313131"/>
<stop offset="1" stop-color="#1A161E"/>
</radialGradient>
<radialGradient id="paint51_radial_115_1520" cx="0" cy="0" r="1" gradientUnits="userSpaceOnUse" gradientTransform="translate(6.44565 8.30402) rotate(17.4472) scale(1.16075 3.58098)">
<stop stop-color="#564943"/>
<stop offset="0.746" stop-color="#1E191C"/>
</radialGradient>
<radialGradient id="paint52_radial_115_1520" cx="0" cy="0" r="1" gradientUnits="userSpaceOnUse" gradientTransform="translate(13.094 7.2303) rotate(180) scale(3.92088 6.936)">
<stop stop-color="#FFDCC0"/>
<stop offset="1" stop-color="#D6A195"/>
</radialGradient>
<linearGradient id="paint53_linear_115_1520" x1="14.8565" y1="8.49405" x2="11.5917" y2="8.49405" gradientUnits="userSpaceOnUse">
<stop stop-color="#FFD6BA"/>
<stop offset="1" stop-color="#FFD6BA" stop-opacity="0"/>
</linearGradient>
<radialGradient id="paint54_radial_115_1520" cx="0" cy="0" r="1" gradientUnits="userSpaceOnUse" gradientTransform="translate(11.426 2.60205) rotate(90) scale(9.76898 8.08988)">
<stop offset="0.754" stop-color="#BC847A" stop-opacity="0"/>
<stop offset="1" stop-color="#A36F64"/>
</radialGradient>
<radialGradient id="paint55_radial_115_1520" cx="0" cy="0" r="1" gradientUnits="userSpaceOnUse" gradientTransform="translate(12.8232 6.2448) rotate(-90) scale(0.861263 1.06581)">
<stop offset="0.325" stop-color="#F6B8A8"/>
<stop offset="1" stop-color="#F6B8A8" stop-opacity="0"/>
</radialGradient>
<radialGradient id="paint56_radial_115_1520" cx="0" cy="0" r="1" gradientUnits="userSpaceOnUse" gradientTransform="translate(9.263 6.28005) rotate(-89.7942) scale(0.820708 0.893128)">
<stop offset="0.378" stop-color="#D39991"/>
<stop offset="1" stop-color="#D39991" stop-opacity="0"/>
</radialGradient>
<radialGradient id="paint57_radial_115_1520" cx="0" cy="0" r="1" gradientUnits="userSpaceOnUse" gradientTransform="translate(13.5627 7.9713) rotate(176.388) scale(6.38466 16.3096)">
<stop offset="0.836" stop-color="#E6AD97" stop-opacity="0"/>
<stop offset="1" stop-color="#E6AD97"/>
</radialGradient>
<radialGradient id="paint58_radial_115_1520" cx="0" cy="0" r="1" gradientUnits="userSpaceOnUse" gradientTransform="translate(6.88775 3.98655) rotate(-46.6113) scale(3.38281 1.23835)">
<stop offset="0.428" stop-color="#9F6D5C"/>
<stop offset="1" stop-color="#9F6D5C" stop-opacity="0"/>
</radialGradient>
<radialGradient id="paint59_radial_115_1520" cx="0" cy="0" r="1" gradientUnits="userSpaceOnUse" gradientTransform="translate(12.8082 3.49605) rotate(121.159) scale(2.52673 2.08602)">
<stop offset="0.078" stop-color="#F6C3B0"/>
<stop offset="1" stop-color="#F6C3B0" stop-opacity="0"/>
</radialGradient>
<linearGradient id="paint60_linear_115_1520" x1="11.6167" y1="7.73677" x2="10.9882" y2="7.76227" gradientUnits="userSpaceOnUse">
<stop offset="0.36" stop-color="#FFDFC7"/>
<stop offset="1" stop-color="#FFDFC7" stop-opacity="0"/>
</linearGradient>
<radialGradient id="paint61_radial_115_1520" cx="0" cy="0" r="1" gradientUnits="userSpaceOnUse" gradientTransform="translate(11.3377 8.25052) rotate(90) scale(0.183075 0.575385)">
<stop stop-color="#FFDDC7"/>
<stop offset="1" stop-color="#FFDDC7" stop-opacity="0"/>
</radialGradient>
<linearGradient id="paint62_linear_115_1520" x1="10.9882" y1="8.59102" x2="10.9882" y2="8.24227" gradientUnits="userSpaceOnUse">
<stop stop-color="#D89793"/>
<stop offset="1" stop-color="#D89793" stop-opacity="0"/>
</linearGradient>
<radialGradient id="paint63_radial_115_1520" cx="0" cy="0" r="1" gradientUnits="userSpaceOnUse" gradientTransform="translate(11.4255 7.82377) rotate(155.369) scale(1.25506 2.01697)">
<stop offset="0.714" stop-color="#D3968C" stop-opacity="0"/>
<stop offset="1" stop-color="#D3968C"/>
</radialGradient>
<linearGradient id="paint64_linear_115_1520" x1="10.9882" y1="6.46552" x2="10.9882" y2="6.97177" gradientUnits="userSpaceOnUse">
<stop stop-color="#E8BBA8"/>
<stop offset="1" stop-color="#E8BBA8" stop-opacity="0"/>
</linearGradient>
<linearGradient id="paint65_linear_115_1520" x1="10.0869" y1="9.76928" x2="10.3261" y2="9.14303" gradientUnits="userSpaceOnUse">
<stop stop-color="#ECBCAE"/>
<stop offset="1" stop-color="#ECBCAE" stop-opacity="0"/>
</linearGradient>
<radialGradient id="paint66_radial_115_1520" cx="0" cy="0" r="1" gradientUnits="userSpaceOnUse" gradientTransform="translate(10.988 9.88468) rotate(-90) scale(0.540555 2.17477)">
<stop stop-color="#88014E"/>
<stop offset="1" stop-color="#86004D"/>
</radialGradient>
<linearGradient id="paint67_linear_115_1520" x1="16.127" y1="2.98325" x2="7.418" y2="2.98325" gradientUnits="userSpaceOnUse">
<stop stop-color="#443D40"/>
<stop offset="1" stop-color="#272127"/>
</linearGradient>
<radialGradient id="paint68_radial_115_1520" cx="0" cy="0" r="1" gradientUnits="userSpaceOnUse" gradientTransform="translate(7.06625 5.06075) rotate(-90) scale(2.62599 6.64082)">
<stop offset="0.536" stop-color="#3E3433"/>
<stop offset="1" stop-color="#3E3433" stop-opacity="0"/>
</radialGradient>
<radialGradient id="paint69_radial_115_1520" cx="0" cy="0" r="1" gradientUnits="userSpaceOnUse" gradientTransform="translate(14.6331 6.04387) rotate(-87.401) scale(1.88635 3.34223)">
<stop stop-color="#4F4D4D"/>
<stop offset="1" stop-color="#4F4D4D" stop-opacity="0"/>
</radialGradient>
<radialGradient id="paint70_radial_115_1520" cx="0" cy="0" r="1" gradientUnits="userSpaceOnUse" gradientTransform="translate(14.0686 1.33619) rotate(-146.667) scale(2.11746 1.55432)">
<stop stop-color="#5E5A5B"/>
<stop offset="1" stop-color="#5E5A5B" stop-opacity="0"/>
</radialGradient>
<radialGradient id="paint71_radial_115_1520" cx="0" cy="0" r="1" gradientUnits="userSpaceOnUse" gradientTransform="translate(10.31 0.14225) rotate(58.465) scale(1.29793 3.00537)">
<stop offset="0.287" stop-color="#484646"/>
<stop offset="1" stop-color="#484646" stop-opacity="0"/>
</radialGradient>
<radialGradient id="paint72_radial_115_1520" cx="0" cy="0" r="1" gradientUnits="userSpaceOnUse" gradientTransform="translate(11.1781 1.83666) rotate(180) scale(1.65084 0.61269)">
<stop stop-color="#423C3F"/>
<stop offset="1" stop-color="#423C3F" stop-opacity="0"/>
</radialGradient>
<radialGradient id="paint73_radial_115_1520" cx="0" cy="0" r="1" gradientUnits="userSpaceOnUse" gradientTransform="translate(6.91433 4.79391) rotate(-57.7244) scale(4.51995 5.00765)">
<stop offset="0.093" stop-color="#0B0306"/>
<stop offset="0.311" stop-color="#1C0C20"/>
<stop offset="1" stop-color="#1C0C20" stop-opacity="0"/>
</radialGradient>
<radialGradient id="paint74_radial_115_1520" cx="0" cy="0" r="1" gradientUnits="userSpaceOnUse" gradientTransform="translate(13.5481 2.4191) scale(2.29378 0.896827)">
<stop stop-color="#4E494B"/>
<stop offset="1" stop-color="#4E494B" stop-opacity="0"/>
</radialGradient>
<radialGradient id="paint75_radial_115_1520" cx="0" cy="0" r="1" gradientUnits="userSpaceOnUse" gradientTransform="translate(12.9631 4.69685) rotate(-43.6141) scale(2.77491 5.08015)">
<stop offset="0.857" stop-color="#545051" stop-opacity="0"/>
<stop offset="1" stop-color="#545051"/>
</radialGradient>
<radialGradient id="paint76_radial_115_1520" cx="0" cy="0" r="1" gradientUnits="userSpaceOnUse" gradientTransform="translate(12.2986 3.58985) rotate(6.66666) scale(2.45273 1.02691)">
<stop stop-color="#200E25"/>
<stop offset="1" stop-color="#200E25" stop-opacity="0"/>
</radialGradient>
<radialGradient id="paint77_radial_115_1520" cx="0" cy="0" r="1" gradientUnits="userSpaceOnUse" gradientTransform="translate(12.6245 6.54356) rotate(90) scale(0.60849 0.967867)">
<stop offset="0.802" stop-color="#7D574A"/>
<stop offset="1" stop-color="#664842"/>
</radialGradient>
<radialGradient id="paint78_radial_115_1520" cx="0" cy="0" r="1" gradientUnits="userSpaceOnUse" gradientTransform="translate(12.4546 6.60654) rotate(-127.812) scale(0.283718 0.390608)">
<stop offset="0.766" stop-color="#FFE6E2" stop-opacity="0"/>
<stop offset="0.966" stop-color="#FFE6E2"/>
</radialGradient>
<linearGradient id="paint79_linear_115_1520" x1="13.2076" y1="6.58342" x2="12.9728" y2="6.72892" gradientUnits="userSpaceOnUse">
<stop stop-color="#B4948D"/>
<stop offset="1" stop-color="#B4948D" stop-opacity="0"/>
</linearGradient>
<radialGradient id="paint80_radial_115_1520" cx="0" cy="0" r="1" gradientUnits="userSpaceOnUse" gradientTransform="translate(9.35182 6.54356) rotate(90) scale(0.60852 0.96792)">
<stop offset="0.802" stop-color="#7D574A"/>
<stop offset="1" stop-color="#664842"/>
</radialGradient>
<linearGradient id="paint81_linear_115_1520" x1="9.9095" y1="6.58308" x2="9.674" y2="6.72858" gradientUnits="userSpaceOnUse">
<stop stop-color="#B4948D"/>
<stop offset="1" stop-color="#B4948D" stop-opacity="0"/>
</linearGradient>
<radialGradient id="paint82_radial_115_1520" cx="0" cy="0" r="1" gradientUnits="userSpaceOnUse" gradientTransform="translate(9.24847 6.68453) rotate(-118.811) scale(0.370606 0.445494)">
<stop offset="0.766" stop-color="#FFE6E2" stop-opacity="0"/>
<stop offset="0.966" stop-color="#FFE6E2"/>
</radialGradient>
<linearGradient id="paint83_linear_115_1520" x1="15.816" y1="6.60354" x2="14.9108" y2="8.23628" gradientUnits="userSpaceOnUse">
<stop stop-color="#FFD6BD"/>
<stop offset="1" stop-color="#F0B8A6"/>
</linearGradient>
<radialGradient id="paint84_radial_115_1520" cx="0" cy="0" r="1" gradientUnits="userSpaceOnUse" gradientTransform="translate(14.4518 6.55329) rotate(74.3475) scale(1.74725 1.66701)">
<stop offset="0.856" stop-color="#CE978E" stop-opacity="0"/>
<stop offset="1" stop-color="#CE978E"/>
</radialGradient>
<radialGradient id="paint85_radial_115_1520" cx="0" cy="0" r="1" gradientUnits="userSpaceOnUse" gradientTransform="translate(14.7218 6.96203) rotate(-53.9198) scale(1.00326 0.840932)">
<stop offset="0.664" stop-color="#F7B99C"/>
<stop offset="1" stop-color="#F7B99C" stop-opacity="0"/>
</radialGradient>
<radialGradient id="paint86_radial_115_1520" cx="0" cy="0" r="1" gradientUnits="userSpaceOnUse" gradientTransform="translate(14.8073 7.09178) rotate(-69.263) scale(1.24337 1.66131)">
<stop offset="0.803" stop-color="#EBBB9D" stop-opacity="0"/>
<stop offset="1" stop-color="#EBBB9D"/>
</radialGradient>
<linearGradient id="paint87_linear_115_1520" x1="6.6005" y1="7.13168" x2="7.69475" y2="7.03643" gradientUnits="userSpaceOnUse">
<stop stop-color="#D19787"/>
<stop offset="1" stop-color="#C9887D"/>
</linearGradient>
<radialGradient id="paint88_radial_115_1520" cx="0" cy="0" r="1" gradientUnits="userSpaceOnUse" gradientTransform="translate(7.30094 7.03541) rotate(-173.034) scale(1.21887 1.3084)">
<stop offset="0.775" stop-color="#E8AF99" stop-opacity="0"/>
<stop offset="1" stop-color="#E8AF99"/>
</radialGradient>
<radialGradient id="paint89_radial_115_1520" cx="0" cy="0" r="1" gradientUnits="userSpaceOnUse" gradientTransform="translate(7.3025 7.03755) rotate(170.26) scale(0.697412 0.855755)">
<stop stop-color="#C18472"/>
<stop offset="1" stop-color="#CA8B7A"/>
</radialGradient>
<linearGradient id="paint90_linear_115_1520" x1="15.0972" y1="6.3252" x2="15.0972" y2="7.75319" gradientUnits="userSpaceOnUse">
<stop stop-color="#F9BB9E"/>
<stop offset="1" stop-color="#F6BBA0"/>
</linearGradient>
<linearGradient id="paint91_linear_115_1520" x1="11.0603" y1="5.68048" x2="11.0603" y2="8.51698" gradientUnits="userSpaceOnUse">
<stop stop-color="#402857"/>
<stop offset="1" stop-color="#251732"/>
</linearGradient>
<radialGradient id="paint92_radial_115_1520" cx="0" cy="0" r="1" gradientUnits="userSpaceOnUse" gradientTransform="translate(7.5316 6.50848) scale(0.679688 2.03906)">
<stop stop-color="#52396B"/>
<stop offset="1" stop-color="#52396B" stop-opacity="0"/>
</radialGradient>
</defs>
</svg>
